<?xml version="1.0" encoding="UTF-8" standalone="no"?>
<svg
   xmlns:dc="http://purl.org/dc/elements/1.1/"
   xmlns:cc="http://creativecommons.org/ns#"
   xmlns:rdf="http://www.w3.org/1999/02/22-rdf-syntax-ns#"
   xmlns:svg="http://www.w3.org/2000/svg"
   xmlns="http://www.w3.org/2000/svg"
   xmlns:xlink="http://www.w3.org/1999/xlink"
   xmlns:sodipodi="http://sodipodi.sourceforge.net/DTD/sodipodi-0.dtd"
   xmlns:inkscape="http://www.inkscape.org/namespaces/inkscape"
   width="600"
   height="400"
   viewBox="0 0 158.75 105.83334"
   version="1.1"
   id="svg8"
   inkscape:export-filename="/home/khiky/Head.png"
   inkscape:export-xdpi="96"
   inkscape:export-ydpi="96"
   inkscape:version="1.0.2 (1.0.2+r75+1)"
   sodipodi:docname="Logo-2 (copy 1).svg">
  <defs
     id="defs2">
    <linearGradient
       inkscape:collect="always"
       id="linearGradient976">
      <stop
         style="stop-color:#e63f77;stop-opacity:1"
         offset="0"
         id="stop972" />
      <stop
         style="stop-color:#77bdfb;stop-opacity:1"
         offset="1"
         id="stop974" />
    </linearGradient>
    <linearGradient
       inkscape:collect="always"
       xlink:href="#linearGradient976"
       id="linearGradient978"
       x1="54.08699"
       y1="14.343336"
       x2="101.88504"
       y2="60.254333"
       gradientUnits="userSpaceOnUse" />
    <filter
       inkscape:collect="always"
       style="color-interpolation-filters:sRGB"
       id="filter1040"
       x="-0.039500812"
       width="1.0790016"
       y="-0.060888615"
       height="1.1217772">
      <feGaussianBlur
         inkscape:collect="always"
         stdDeviation="2.354583"
         id="feGaussianBlur1042" />
    </filter>
  </defs>
  <sodipodi:namedview
     id="base"
     pagecolor="#303444"
     bordercolor="#666666"
     borderopacity="1.0"
     inkscape:pageopacity="0"
     inkscape:pageshadow="2"
     inkscape:zoom="0.98994949"
     inkscape:cx="495.55435"
     inkscape:cy="269.93112"
     inkscape:document-units="px"
     inkscape:current-layer="layer1"
     inkscape:document-rotation="0"
     showgrid="false"
     inkscape:snap-global="false"
     units="px"
     inkscape:window-width="1352"
     inkscape:window-height="689"
     inkscape:window-x="7"
     inkscape:window-y="40"
     inkscape:window-maximized="1"
     inkscape:snap-nodes="true" />
  <metadata
     id="metadata5">
    <rdf:RDF>
      <cc:Work
         rdf:about="">
        <dc:format>image/svg+xml</dc:format>
        <dc:type
           rdf:resource="http://purl.org/dc/dcmitype/StillImage" />
        <dc:title />
      </cc:Work>
    </rdf:RDF>
  </metadata>
  <g
     inkscape:label="Layer 1"
     inkscape:groupmode="layer"
     id="layer1">
    <g
       id="g994"
       style="fill:#999999;filter:url(#filter1040)">
      <circle
         style="fill:#999999;fill-opacity:1;stroke:none;stroke-width:0.481585;stroke-miterlimit:4;stroke-dasharray:none;stroke-opacity:1"
         id="circle964"
         cx="78.134499"
         cy="37.417336"
         r="26.56151" />
      <path
         sodipodi:type="star"
         style="fill:#999999;fill-opacity:1;stroke:none;stroke-width:1.32292;stroke-miterlimit:4;stroke-dasharray:none;stroke-opacity:1"
         id="path966"
         sodipodi:sides="4"
         sodipodi:cx="-41.08094"
         sodipodi:cy="-8.9541645"
         sodipodi:r1="41.765175"
         sodipodi:r2="19.629633"
         sodipodi:arg1="1.558938"
         sodipodi:arg2="2.3443362"
         inkscape:flatsided="false"
         inkscape:rounded="0.19"
         inkscape:randomized="0"
         transform="matrix(0.05486583,0,0,0.06986947,54.873989,20.132734)"
         d="M -40.585687,32.808074 C -46.50349,32.878252 -50.561476,9.2245935 -54.795619,5.0896983 -59.029761,0.95480332 -82.773,-2.5411079 -82.843179,-8.458911 c -0.07018,-5.917803 23.583481,-9.975789 27.718376,-14.209932 4.134895,-4.234142 7.630806,-27.977382 13.548609,-28.04756 5.917804,-0.07018 9.97579,23.583481 14.209932,27.718376 4.234143,4.134895 27.97738183,7.630806 28.04756015,13.548609 0.0701783,5.9178034 -23.58348015,9.97578943 -27.71837515,14.209932 -4.134895,4.2341424 -7.630807,27.977382 -13.54861,28.04756 z" />
      <path
         sodipodi:type="star"
         style="fill:#999999;fill-opacity:1;stroke:none;stroke-width:1.32292;stroke-miterlimit:4;stroke-dasharray:none;stroke-opacity:1"
         id="path968"
         sodipodi:sides="4"
         sodipodi:cx="-41.08094"
         sodipodi:cy="-8.9541645"
         sodipodi:r1="41.765175"
         sodipodi:r2="19.629633"
         sodipodi:arg1="1.558938"
         sodipodi:arg2="2.3443362"
         inkscape:flatsided="false"
         inkscape:rounded="0.19"
         inkscape:randomized="0"
         transform="matrix(0.05486583,0,0,0.06986947,107.78559,63.706395)"
         d="M -40.585687,32.808074 C -46.50349,32.878252 -50.561476,9.2245935 -54.795619,5.0896983 -59.029761,0.95480332 -82.773,-2.5411079 -82.843179,-8.458911 c -0.07018,-5.917803 23.583481,-9.975789 27.718376,-14.209932 4.134895,-4.234142 7.630806,-27.977382 13.548609,-28.04756 5.917804,-0.07018 9.97579,23.583481 14.209932,27.718376 4.234143,4.134895 27.97738183,7.630806 28.04756015,13.548609 0.0701783,5.9178034 -23.58348015,9.97578943 -27.71837515,14.209932 -4.134895,4.2341424 -7.630807,27.977382 -13.54861,28.04756 z" />
      <path
         sodipodi:type="star"
         style="fill:#999999;fill-opacity:1;stroke:none;stroke-width:1.32292;stroke-miterlimit:4;stroke-dasharray:none;stroke-opacity:1"
         id="path970"
         sodipodi:sides="4"
         sodipodi:cx="-41.08094"
         sodipodi:cy="-8.9541645"
         sodipodi:r1="41.765175"
         sodipodi:r2="19.629633"
         sodipodi:arg1="1.558938"
         sodipodi:arg2="2.3443362"
         inkscape:flatsided="false"
         inkscape:rounded="0.19"
         inkscape:randomized="0"
         transform="matrix(0.0332087,0,0,0.04228996,101.69559,28.943103)"
         d="M -40.585687,32.808074 C -46.50349,32.878252 -50.561476,9.2245935 -54.795619,5.0896983 -59.029761,0.95480332 -82.773,-2.5411079 -82.843179,-8.458911 c -0.07018,-5.917803 23.583481,-9.975789 27.718376,-14.209932 4.134895,-4.234142 7.630806,-27.977382 13.548609,-28.04756 5.917804,-0.07018 9.97579,23.583481 14.209932,27.718376 4.234143,4.134895 27.97738183,7.630806 28.04756015,13.548609 0.0701783,5.9178034 -23.58348015,9.97578943 -27.71837515,14.209932 -4.134895,4.2341424 -7.630807,27.977382 -13.54861,28.04756 z" />
      <path
         sodipodi:type="star"
         style="fill:#999999;fill-opacity:1;stroke:none;stroke-width:1.32292;stroke-miterlimit:4;stroke-dasharray:none;stroke-opacity:1"
         id="path972"
         sodipodi:sides="4"
         sodipodi:cx="-41.08094"
         sodipodi:cy="-8.9541645"
         sodipodi:r1="41.765175"
         sodipodi:r2="19.629633"
         sodipodi:arg1="1.558938"
         sodipodi:arg2="2.3443362"
         inkscape:flatsided="false"
         inkscape:rounded="0.19"
         inkscape:randomized="0"
         transform="matrix(0.0332087,0,0,0.04228996,108.69187,9.8016199)"
         d="M -40.585687,32.808074 C -46.50349,32.878252 -50.561476,9.2245935 -54.795619,5.0896983 -59.029761,0.95480332 -82.773,-2.5411079 -82.843179,-8.458911 c -0.07018,-5.917803 23.583481,-9.975789 27.718376,-14.209932 4.134895,-4.234142 7.630806,-27.977382 13.548609,-28.04756 5.917804,-0.07018 9.97579,23.583481 14.209932,27.718376 4.234143,4.134895 27.97738183,7.630806 28.04756015,13.548609 0.0701783,5.9178034 -23.58348015,9.97578943 -27.71837515,14.209932 -4.134895,4.2341424 -7.630807,27.977382 -13.54861,28.04756 z" />
      <path
         sodipodi:type="star"
         style="fill:#999999;fill-opacity:1;stroke:none;stroke-width:1.32292;stroke-miterlimit:4;stroke-dasharray:none;stroke-opacity:1"
         id="path974"
         sodipodi:sides="4"
         sodipodi:cx="-41.08094"
         sodipodi:cy="-8.9541645"
         sodipodi:r1="41.765175"
         sodipodi:r2="19.629633"
         sodipodi:arg1="1.558938"
         sodipodi:arg2="2.3443362"
         inkscape:flatsided="false"
         inkscape:rounded="0.19"
         inkscape:randomized="0"
         transform="matrix(0.02306306,0,0,0.0293699,48.317002,55.617542)"
         d="M -40.585687,32.808074 C -46.50349,32.878252 -50.561476,9.2245935 -54.795619,5.0896983 -59.029761,0.95480332 -82.773,-2.5411079 -82.843179,-8.458911 c -0.07018,-5.917803 23.583481,-9.975789 27.718376,-14.209932 4.134895,-4.234142 7.630806,-27.977382 13.548609,-28.04756 5.917804,-0.07018 9.97579,23.583481 14.209932,27.718376 4.234143,4.134895 27.97738183,7.630806 28.04756015,13.548609 0.0701783,5.9178034 -23.58348015,9.97578943 -27.71837515,14.209932 -4.134895,4.2341424 -7.630807,27.977382 -13.54861,28.04756 z" />
      <path
         sodipodi:type="star"
         style="fill:#999999;fill-opacity:1;stroke:none;stroke-width:1.32292;stroke-miterlimit:4;stroke-dasharray:none;stroke-opacity:1"
         id="path976"
         sodipodi:sides="4"
         sodipodi:cx="-41.08094"
         sodipodi:cy="-8.9541645"
         sodipodi:r1="41.765175"
         sodipodi:r2="19.629633"
         sodipodi:arg1="1.558938"
         sodipodi:arg2="2.3443362"
         inkscape:flatsided="false"
         inkscape:rounded="0.19"
         inkscape:randomized="0"
         transform="matrix(0.05486583,0,0,0.06986947,75.306833,60.600224)"
         d="M -40.585687,32.808074 C -46.50349,32.878252 -50.561476,9.2245935 -54.795619,5.0896983 -59.029761,0.95480332 -82.773,-2.5411079 -82.843179,-8.458911 c -0.07018,-5.917803 23.583481,-9.975789 27.718376,-14.209932 4.134895,-4.234142 7.630806,-27.977382 13.548609,-28.04756 5.917804,-0.07018 9.97579,23.583481 14.209932,27.718376 4.234143,4.134895 27.97738183,7.630806 28.04756015,13.548609 0.0701783,5.9178034 -23.58348015,9.97578943 -27.71837515,14.209932 -4.134895,4.2341424 -7.630807,27.977382 -13.54861,28.04756 z" />
      <text
         xml:space="preserve"
         style="font-style:normal;font-variant:normal;font-weight:normal;font-stretch:normal;font-size:39.1285px;line-height:1.25;font-family:Dosis;-inkscape-font-specification:Dosis;letter-spacing:0px;word-spacing:0px;stroke-width:0.978213;fill:#999999;fill-opacity:1"
         x="60.996216"
         y="50.50716"
         id="text980"><tspan
           sodipodi:role="line"
           id="tspan978"
           x="60.996216"
           y="50.50716"
           style="font-style:normal;font-variant:normal;font-weight:normal;font-stretch:normal;font-family:Dosis;-inkscape-font-specification:Dosis;fill:#999999;stroke-width:0.978213;fill-opacity:1"></tspan></text>
      <text
         xml:space="preserve"
         style="font-size:8.90406px;line-height:1.25;font-family:Abel;-inkscape-font-specification:Abel;letter-spacing:0px;word-spacing:0px;fill:#999999;stroke-width:0.222602"
         x="57.143112"
         y="76.321877"
         id="text984"><tspan
           sodipodi:role="line"
           id="tspan982"
           x="57.143112"
           y="76.321877"
           style="fill:#999999;stroke-width:0.222602">How to Apply</tspan></text>
      <text
         xml:space="preserve"
         style="font-size:13.8931px;line-height:1.25;font-family:Abel;-inkscape-font-specification:Abel;letter-spacing:1.64694px;word-spacing:0px;stroke-width:0.347328;fill:#999999"
         x="7.1501827"
         y="90.940422"
         id="text988"><tspan
           sodipodi:role="line"
           id="tspan986"
           x="7.1501827"
           y="90.940422"
           style="font-style:normal;font-variant:normal;font-weight:normal;font-stretch:normal;font-family:Beckman;-inkscape-font-specification:Beckman;fill:#999999;stroke-width:0.347328">MY CONKY THEMES</tspan></text>
      <text
         xml:space="preserve"
         style="font-size:8.90406px;line-height:1.25;font-family:Abel;-inkscape-font-specification:Abel;letter-spacing:0px;word-spacing:0px;fill:#999999;stroke-width:0.222602"
         x="62.379898"
         y="100.37866"
         id="text992"><tspan
           sodipodi:role="line"
           id="tspan990"
           x="62.379898"
           y="100.37866"
           style="fill:#999999;stroke-width:0.222602">Collection</tspan></text>
    </g>
    <g
       id="g962">
      <circle
         style="fill:url(#linearGradient978);fill-opacity:1;stroke:none;stroke-width:0.481585;stroke-miterlimit:4;stroke-dasharray:none;stroke-opacity:1"
         id="path979"
         cx="78.134499"
         cy="37.417336"
         r="26.56151" />
      <path
         sodipodi:type="star"
         style="fill:#ffffff;fill-opacity:1;stroke:none;stroke-width:1.32292;stroke-miterlimit:4;stroke-dasharray:none;stroke-opacity:1"
         id="path977"
         sodipodi:sides="4"
         sodipodi:cx="-41.08094"
         sodipodi:cy="-8.9541645"
         sodipodi:r1="41.765175"
         sodipodi:r2="19.629633"
         sodipodi:arg1="1.558938"
         sodipodi:arg2="2.3443362"
         inkscape:flatsided="false"
         inkscape:rounded="0.19"
         inkscape:randomized="0"
         transform="matrix(0.05486583,0,0,0.06986947,54.873989,20.132734)"
         d="M -40.585687,32.808074 C -46.50349,32.878252 -50.561476,9.2245935 -54.795619,5.0896983 -59.029761,0.95480332 -82.773,-2.5411079 -82.843179,-8.458911 c -0.07018,-5.917803 23.583481,-9.975789 27.718376,-14.209932 4.134895,-4.234142 7.630806,-27.977382 13.548609,-28.04756 5.917804,-0.07018 9.97579,23.583481 14.209932,27.718376 4.234143,4.134895 27.97738183,7.630806 28.04756015,13.548609 0.0701783,5.9178034 -23.58348015,9.97578943 -27.71837515,14.209932 -4.134895,4.2341424 -7.630807,27.977382 -13.54861,28.04756 z" />
      <path
         sodipodi:type="star"
         style="fill:#ffffff;fill-opacity:1;stroke:none;stroke-width:1.32292;stroke-miterlimit:4;stroke-dasharray:none;stroke-opacity:1"
         id="path1204"
         sodipodi:sides="4"
         sodipodi:cx="-41.08094"
         sodipodi:cy="-8.9541645"
         sodipodi:r1="41.765175"
         sodipodi:r2="19.629633"
         sodipodi:arg1="1.558938"
         sodipodi:arg2="2.3443362"
         inkscape:flatsided="false"
         inkscape:rounded="0.19"
         inkscape:randomized="0"
         transform="matrix(0.05486583,0,0,0.06986947,107.78559,63.706395)"
         d="M -40.585687,32.808074 C -46.50349,32.878252 -50.561476,9.2245935 -54.795619,5.0896983 -59.029761,0.95480332 -82.773,-2.5411079 -82.843179,-8.458911 c -0.07018,-5.917803 23.583481,-9.975789 27.718376,-14.209932 4.134895,-4.234142 7.630806,-27.977382 13.548609,-28.04756 5.917804,-0.07018 9.97579,23.583481 14.209932,27.718376 4.234143,4.134895 27.97738183,7.630806 28.04756015,13.548609 0.0701783,5.9178034 -23.58348015,9.97578943 -27.71837515,14.209932 -4.134895,4.2341424 -7.630807,27.977382 -13.54861,28.04756 z" />
      <path
         sodipodi:type="star"
         style="fill:#ffffff;fill-opacity:1;stroke:none;stroke-width:1.32292;stroke-miterlimit:4;stroke-dasharray:none;stroke-opacity:1"
         id="path1206"
         sodipodi:sides="4"
         sodipodi:cx="-41.08094"
         sodipodi:cy="-8.9541645"
         sodipodi:r1="41.765175"
         sodipodi:r2="19.629633"
         sodipodi:arg1="1.558938"
         sodipodi:arg2="2.3443362"
         inkscape:flatsided="false"
         inkscape:rounded="0.19"
         inkscape:randomized="0"
         transform="matrix(0.0332087,0,0,0.04228996,101.69559,28.943103)"
         d="M -40.585687,32.808074 C -46.50349,32.878252 -50.561476,9.2245935 -54.795619,5.0896983 -59.029761,0.95480332 -82.773,-2.5411079 -82.843179,-8.458911 c -0.07018,-5.917803 23.583481,-9.975789 27.718376,-14.209932 4.134895,-4.234142 7.630806,-27.977382 13.548609,-28.04756 5.917804,-0.07018 9.97579,23.583481 14.209932,27.718376 4.234143,4.134895 27.97738183,7.630806 28.04756015,13.548609 0.0701783,5.9178034 -23.58348015,9.97578943 -27.71837515,14.209932 -4.134895,4.2341424 -7.630807,27.977382 -13.54861,28.04756 z" />
      <path
         sodipodi:type="star"
         style="fill:#ffffff;fill-opacity:1;stroke:none;stroke-width:1.32292;stroke-miterlimit:4;stroke-dasharray:none;stroke-opacity:1"
         id="path1208"
         sodipodi:sides="4"
         sodipodi:cx="-41.08094"
         sodipodi:cy="-8.9541645"
         sodipodi:r1="41.765175"
         sodipodi:r2="19.629633"
         sodipodi:arg1="1.558938"
         sodipodi:arg2="2.3443362"
         inkscape:flatsided="false"
         inkscape:rounded="0.19"
         inkscape:randomized="0"
         transform="matrix(0.0332087,0,0,0.04228996,108.69187,9.8016199)"
         d="M -40.585687,32.808074 C -46.50349,32.878252 -50.561476,9.2245935 -54.795619,5.0896983 -59.029761,0.95480332 -82.773,-2.5411079 -82.843179,-8.458911 c -0.07018,-5.917803 23.583481,-9.975789 27.718376,-14.209932 4.134895,-4.234142 7.630806,-27.977382 13.548609,-28.04756 5.917804,-0.07018 9.97579,23.583481 14.209932,27.718376 4.234143,4.134895 27.97738183,7.630806 28.04756015,13.548609 0.0701783,5.9178034 -23.58348015,9.97578943 -27.71837515,14.209932 -4.134895,4.2341424 -7.630807,27.977382 -13.54861,28.04756 z" />
      <path
         sodipodi:type="star"
         style="fill:#ffffff;fill-opacity:1;stroke:none;stroke-width:1.32292;stroke-miterlimit:4;stroke-dasharray:none;stroke-opacity:1"
         id="path1210"
         sodipodi:sides="4"
         sodipodi:cx="-41.08094"
         sodipodi:cy="-8.9541645"
         sodipodi:r1="41.765175"
         sodipodi:r2="19.629633"
         sodipodi:arg1="1.558938"
         sodipodi:arg2="2.3443362"
         inkscape:flatsided="false"
         inkscape:rounded="0.19"
         inkscape:randomized="0"
         transform="matrix(0.02306306,0,0,0.0293699,48.317002,55.617542)"
         d="M -40.585687,32.808074 C -46.50349,32.878252 -50.561476,9.2245935 -54.795619,5.0896983 -59.029761,0.95480332 -82.773,-2.5411079 -82.843179,-8.458911 c -0.07018,-5.917803 23.583481,-9.975789 27.718376,-14.209932 4.134895,-4.234142 7.630806,-27.977382 13.548609,-28.04756 5.917804,-0.07018 9.97579,23.583481 14.209932,27.718376 4.234143,4.134895 27.97738183,7.630806 28.04756015,13.548609 0.0701783,5.9178034 -23.58348015,9.97578943 -27.71837515,14.209932 -4.134895,4.2341424 -7.630807,27.977382 -13.54861,28.04756 z" />
      <path
         sodipodi:type="star"
         style="fill:#ffffff;fill-opacity:1;stroke:none;stroke-width:1.32292;stroke-miterlimit:4;stroke-dasharray:none;stroke-opacity:1"
         id="path3514"
         sodipodi:sides="4"
         sodipodi:cx="-41.08094"
         sodipodi:cy="-8.9541645"
         sodipodi:r1="41.765175"
         sodipodi:r2="19.629633"
         sodipodi:arg1="1.558938"
         sodipodi:arg2="2.3443362"
         inkscape:flatsided="false"
         inkscape:rounded="0.19"
         inkscape:randomized="0"
         transform="matrix(0.05486583,0,0,0.06986947,75.306833,60.600224)"
         d="M -40.585687,32.808074 C -46.50349,32.878252 -50.561476,9.2245935 -54.795619,5.0896983 -59.029761,0.95480332 -82.773,-2.5411079 -82.843179,-8.458911 c -0.07018,-5.917803 23.583481,-9.975789 27.718376,-14.209932 4.134895,-4.234142 7.630806,-27.977382 13.548609,-28.04756 5.917804,-0.07018 9.97579,23.583481 14.209932,27.718376 4.234143,4.134895 27.97738183,7.630806 28.04756015,13.548609 0.0701783,5.9178034 -23.58348015,9.97578943 -27.71837515,14.209932 -4.134895,4.2341424 -7.630807,27.977382 -13.54861,28.04756 z" />
      <text
         xml:space="preserve"
         style="font-style:normal;font-variant:normal;font-weight:normal;font-stretch:normal;font-size:39.1285px;line-height:1.25;font-family:Dosis;-inkscape-font-specification:Dosis;letter-spacing:0px;word-spacing:0px;stroke-width:0.978213;fill:#ffffff;fill-opacity:1;"
         x="60.996216"
         y="50.50716"
         id="text962"><tspan
           sodipodi:role="line"
           id="tspan960"
           x="60.996216"
           y="50.50716"
           style="font-style:normal;font-variant:normal;font-weight:normal;font-stretch:normal;font-family:Dosis;-inkscape-font-specification:Dosis;fill:#ffffff;stroke-width:0.978213;fill-opacity:1;"></tspan></text>
      <text
         xml:space="preserve"
         style="font-size:8.90406px;line-height:1.25;font-family:Abel;-inkscape-font-specification:Abel;letter-spacing:0px;word-spacing:0px;fill:#ffffff;stroke-width:0.222602"
         x="57.143112"
         y="76.321877"
         id="text960"><tspan
           sodipodi:role="line"
           id="tspan958"
           x="57.143112"
           y="76.321877"
           style="fill:#ffffff;stroke-width:0.222602">How to Apply</tspan></text>
      <text
         xml:space="preserve"
         style="font-size:13.8931px;line-height:1.25;font-family:Abel;-inkscape-font-specification:Abel;letter-spacing:1.64694px;word-spacing:0px;stroke-width:0.347328"
         x="7.1501827"
         y="90.940422"
         id="text964"><tspan
           sodipodi:role="line"
           id="tspan962"
           x="7.1501827"
           y="90.940422"
           style="font-style:normal;font-variant:normal;font-weight:normal;font-stretch:normal;font-family:Beckman;-inkscape-font-specification:Beckman;fill:#ffffff;stroke-width:0.347328">MY CONKY THEMES</tspan></text>
      <text
         xml:space="preserve"
         style="font-size:8.90406px;line-height:1.25;font-family:Abel;-inkscape-font-specification:Abel;letter-spacing:0px;word-spacing:0px;fill:#ffffff;stroke-width:0.222602"
         x="62.379898"
         y="100.37866"
         id="text970"><tspan
           sodipodi:role="line"
           id="tspan968"
           x="62.379898"
           y="100.37866"
           style="fill:#ffffff;stroke-width:0.222602">Collection</tspan></text>
    </g>
  </g>
</svg>
