<?xml version="1.0" encoding="UTF-8" standalone="no"?>
<svg
   xmlns:dc="http://purl.org/dc/elements/1.1/"
   xmlns:cc="http://creativecommons.org/ns#"
   xmlns:rdf="http://www.w3.org/1999/02/22-rdf-syntax-ns#"
   xmlns:svg="http://www.w3.org/2000/svg"
   xmlns="http://www.w3.org/2000/svg"
   xmlns:xlink="http://www.w3.org/1999/xlink"
   xmlns:sodipodi="http://sodipodi.sourceforge.net/DTD/sodipodi-0.dtd"
   xmlns:inkscape="http://www.inkscape.org/namespaces/inkscape"
   width="720"
   height="180"
   viewBox="0 0 190.5 47.625001"
   version="1.1"
   id="svg8"
   inkscape:version="1.0.2 (1.0.2+r75+1)"
   sodipodi:docname="Logo.svg">
  <defs
     id="defs2">
    <linearGradient
       inkscape:collect="always"
       id="linearGradient864">
      <stop
         style="stop-color:#e63f77;stop-opacity:1"
         offset="0"
         id="stop860" />
      <stop
         style="stop-color:#77bdfb;stop-opacity:1"
         offset="1"
         id="stop862" />
    </linearGradient>
    <linearGradient
       inkscape:collect="always"
       xlink:href="#linearGradient864"
       id="linearGradient838"
       gradientUnits="userSpaceOnUse"
       x1="28.881828"
       y1="25.478577"
       x2="151.21872"
       y2="25.017467"
       gradientTransform="translate(7.7428742,0.10337955)" />
    <linearGradient
       inkscape:collect="always"
       xlink:href="#linearGradient864"
       id="linearGradient857"
       gradientUnits="userSpaceOnUse"
       gradientTransform="translate(7.7428742,0.10337955)"
       x1="28.881828"
       y1="25.478577"
       x2="151.21872"
       y2="25.017467" />
    <linearGradient
       inkscape:collect="always"
       xlink:href="#linearGradient864"
       id="linearGradient859"
       gradientUnits="userSpaceOnUse"
       gradientTransform="translate(7.7428742,0.10337955)"
       x1="28.881828"
       y1="25.478577"
       x2="151.21872"
       y2="25.017467" />
    <linearGradient
       inkscape:collect="always"
       xlink:href="#linearGradient864"
       id="linearGradient861"
       gradientUnits="userSpaceOnUse"
       gradientTransform="translate(7.7428742,0.10337955)"
       x1="28.881828"
       y1="25.478577"
       x2="151.21872"
       y2="25.017467" />
    <linearGradient
       inkscape:collect="always"
       xlink:href="#linearGradient864"
       id="linearGradient863"
       gradientUnits="userSpaceOnUse"
       gradientTransform="translate(7.7428742,0.10337955)"
       x1="28.881828"
       y1="25.478577"
       x2="151.21872"
       y2="25.017467" />
    <linearGradient
       inkscape:collect="always"
       xlink:href="#linearGradient864"
       id="linearGradient865"
       gradientUnits="userSpaceOnUse"
       gradientTransform="translate(7.7428742,0.10337955)"
       x1="28.881828"
       y1="25.478577"
       x2="151.21872"
       y2="25.017467" />
  </defs>
  <sodipodi:namedview
     id="base"
     pagecolor="#ffffff"
     bordercolor="#666666"
     borderopacity="1.0"
     inkscape:pageopacity="0.0"
     inkscape:pageshadow="2"
     inkscape:zoom="0.72307923"
     inkscape:cx="244.41957"
     inkscape:cy="127.66793"
     inkscape:document-units="px"
     inkscape:current-layer="layer1"
     inkscape:document-rotation="0"
     showgrid="false"
     inkscape:snap-global="false"
     inkscape:window-width="1352"
     inkscape:window-height="689"
     inkscape:window-x="7"
     inkscape:window-y="40"
     inkscape:window-maximized="1"
     units="px" />
  <metadata
     id="metadata5">
    <rdf:RDF>
      <cc:Work
         rdf:about="">
        <dc:format>image/svg+xml</dc:format>
        <dc:type
           rdf:resource="http://purl.org/dc/dcmitype/StillImage" />
        <dc:title />
      </cc:Work>
    </rdf:RDF>
  </metadata>
  <g
     inkscape:label="Layer 1"
     inkscape:groupmode="layer"
     id="layer1">
    <path
       id="path849"
       style="fill:url(#linearGradient838);fill-opacity:1;stroke-width:4.83141"
       inkscape:transform-center-x="-6.10781e-05"
       inkscape:transform-center-y="-1.3249343e-05"
       d="m 162.39021,1.983993 -22.90252,6.0873916 -0.88874,2.9741314 h 13.7001 c 0.28507,0 0.42613,0.153843 0.42613,0.462642 v 24.043444 c 0,0.308631 -0.14111,0.46264 -0.42613,0.46264 h -3.66982 c -0.28507,0 -0.42786,-0.153812 -0.42786,-0.46264 V 15.567569 h -8.83367 c -0.49864,0 -0.89076,-0.188813 -1.17575,-0.568733 l -0.55656,-0.721793 -4.73077,15.842868 18.37349,15.521097 4.92729,-3.255884 h -2.10797 c -0.11887,0 -0.22516,-0.04773 -0.32008,-0.142599 -0.0711,-0.09492 -0.10602,-0.20295 -0.10602,-0.321757 v -3.633304 c 0,-0.118812 0.0349,-0.212137 0.10602,-0.283489 0.0949,-0.09492 0.20126,-0.142599 0.32008,-0.142599 h 8.95195 l 0.72526,-0.480037 -5.54471,-7.214425 c -0.14236,-0.19016 -0.14236,-0.367819 0,-0.533953 l 5.91342,-7.657934 h -10.04592 c -0.11887,0 -0.22516,-0.04773 -0.32008,-0.142599 -0.0711,-0.09492 -0.10602,-0.20295 -0.10602,-0.321757 V 17.8791 c 0,-0.118812 0.0349,-0.226543 0.10602,-0.321757 0.0949,-0.09492 0.20126,-0.14263 0.32008,-0.14263 h 14.24799 c 0.28506,0 0.42784,0.153812 0.42784,0.46264 v 5.202112 c 0,0.308632 -0.0955,0.616546 -0.28508,0.925282 l -4.55859,5.91346 3.7603,4.876876 2.94978,-1.949711 -0.0572,-18.505662 z m 5.48038,11.943459 h 0.45046 l 0.006,0.0038 c 0.009,0 0.0202,0.0044 0.0269,0.01581 0.006,0.01112 0.006,0.02221 -0.001,0.0313 l -1.82445,2.375821 c -0.0302,0.03793 -0.0694,0.05745 -0.11652,0.05745 h -0.33972 c -0.0269,0 -0.0418,-0.01346 -0.0418,-0.04176 v -2.398431 c 0,-0.01112 0.003,-0.0212 0.014,-0.02793 0.006,-0.0091 0.0168,-0.01206 0.027,-0.01206 h 0.36524 c 0.009,0 0.0202,0.0038 0.0304,0.01206 0.006,0.007 0.009,0.01649 0.009,0.02793 v 1.673138 l 1.27663,-1.659247 c 0.0304,-0.03793 0.0711,-0.05746 0.11808,-0.05746 z m -3.79331,0.007 h 0.003 1.64183 c 0.014,0 0.0236,0.0064 0.0269,0.01751 0.006,0.0091 0.006,0.02021 -0.003,0.0313 l -0.26252,0.342638 c -0.0304,0.03793 -0.0694,0.05746 -0.11652,0.05746 h -0.87658 v 0.566999 h 0.88702 c 0.0269,0 0.0416,0.01488 0.0416,0.04345 v 0.361765 c 0,0.03063 -0.014,0.04525 -0.0416,0.04525 h -0.88702 v 0.565263 h 1.1201 c 0.009,0 0.0202,0.0038 0.0269,0.01206 0.009,0.007 0.014,0.01649 0.014,0.02793 v 0.365238 c 0,0.02827 -0.0169,0.04176 -0.0434,0.04176 h -1.5323 c -0.009,0 -0.0202,-0.0017 -0.0302,-0.0088 -0.006,-0.0091 -0.009,-0.02021 -0.009,-0.0313 V 13.97605 c 0,-0.01112 0.003,-0.0212 0.009,-0.02793 0.009,-0.0091 0.0168,-0.01378 0.0302,-0.01378 z m -2.4854,0.0038 h 0.79138 c 0.1703,0 0.32948,0.03198 0.47828,0.09565 0.14909,0.06395 0.27834,0.151556 0.38961,0.262623 0.11102,0.108805 0.19993,0.237177 0.26623,0.386111 0.0686,0.146515 0.10402,0.30338 0.10602,0.471341 0.003,0.175014 -0.0269,0.340295 -0.0955,0.493941 -0.0663,0.153718 -0.15718,0.287629 -0.27295,0.40351 -0.11573,0.113519 -0.25075,0.203386 -0.40702,0.269588 -0.15378,0.06617 -0.31906,0.09916 -0.4939,0.09916 h -0.76182 c -0.009,0 -0.0235,-0.0038 -0.0302,-0.0105 -0.006,-0.0091 -0.009,-0.01818 -0.009,-0.02961 v -2.401909 c 0,-0.01112 0.003,-0.0212 0.009,-0.02793 0.009,-0.0091 0.0168,-0.01206 0.0302,-0.01206 z m 0.41394,0.446995 v 1.582719 h 0.37917 c 0.10868,0 0.21002,-0.02088 0.30426,-0.06092 0.0969,-0.04265 0.18142,-0.09955 0.2521,-0.170436 0.0734,-0.07337 0.13028,-0.156005 0.17029,-0.250439 0.0428,-0.09693 0.0642,-0.200762 0.0642,-0.309574 0,-0.108805 -0.0202,-0.209916 -0.0642,-0.304357 -0.0401,-0.09693 -0.097,-0.181274 -0.17029,-0.252189 -0.071,-0.07337 -0.1552,-0.13029 -0.2521,-0.170437 -0.0946,-0.04265 -0.19555,-0.06439 -0.30426,-0.06439 z m -1.39835,1.554888 h 0.38609 c 0.0304,0 0.0454,0.01441 0.0454,0.04524 v 0.39133 c 0,0.03063 -0.014,0.04522 -0.0454,0.04522 h -0.38609 c -0.0304,0 -0.0469,-0.01441 -0.0469,-0.04522 V 15.98538 c 0,-0.03063 0.0169,-0.04524 0.0469,-0.04524 z" />
    <path
       d="m 19.860328,25.834482 q 0,-2.742724 0.997354,-5.093631 1.032974,-2.350907 2.742725,-4.096277 1.74537,-1.745371 4.096277,-2.707105 2.350907,-0.997355 5.058012,-0.961735 2.885203,0.03562 5.30735,1.175454 2.457766,1.139833 4.238756,3.134542 0.10686,0.142479 0.07124,0.320578 0,0.178099 -0.142479,0.284959 l -2.813965,2.386526 q -0.142479,0.10686 -0.320578,0.10686 -0.178099,-0.03562 -0.284958,-0.178099 -1.175454,-1.353553 -2.778345,-2.137188 -1.602891,-0.819256 -3.45512,-0.783636 -1.674131,0.03562 -3.170163,0.748016 -1.496031,0.676776 -2.600245,1.887849 -1.104214,1.175454 -1.74537,2.742725 -0.641157,1.567271 -0.641157,3.348261 0,1.78099 0.676776,3.348261 0.676777,1.567272 1.81661,2.742725 1.139834,1.175454 2.635866,1.85223 1.496031,0.641156 3.205782,0.641156 1.78099,-0.03562 3.348261,-0.819255 1.567271,-0.783636 2.707105,-2.137188 0.106859,-0.14248 0.284958,-0.14248 0.178099,-0.03562 0.320578,0.10686 l 2.813965,2.386527 q 0.142479,0.106859 0.142479,0.284958 0.03562,0.178099 -0.07124,0.320578 -1.81661,2.030329 -4.309996,3.205782 -2.493386,1.139834 -5.449829,1.104214 -2.671485,0 -5.022392,-0.997354 -2.315287,-1.032975 -4.025038,-2.778345 -1.70975,-1.78099 -2.671485,-4.167517 -0.961734,-2.386526 -0.961734,-5.129251 z"
       style="font-style:normal;font-variant:normal;font-weight:normal;font-stretch:normal;font-size:35.6198px;line-height:1.25;font-family:VALORANT;-inkscape-font-specification:VALORANT;fill:url(#linearGradient857);fill-opacity:1;stroke:none;stroke-width:0.890497"
       id="path845" />
    <path
       d="m 46.817282,13.474411 h 3.668839 q 0.463057,0 0.463057,0.427438 v 19.982708 h 9.973545 q 0.213718,0 0.284958,0.178099 0.106859,0.178099 0,0.320578 l -2.671485,3.455121 q -0.463058,0.569917 -1.139834,0.569917 h -10.57908 q -0.178099,0 -0.320579,-0.10686 -0.106859,-0.142479 -0.106859,-0.320578 V 13.901849 q 0,-0.178099 0.106859,-0.284958 0.14248,-0.14248 0.320579,-0.14248 z"
       style="font-style:normal;font-variant:normal;font-weight:normal;font-stretch:normal;font-size:35.6198px;line-height:1.25;font-family:VALORANT;-inkscape-font-specification:VALORANT;fill:url(#linearGradient859);fill-opacity:1;stroke:none;stroke-width:0.890497"
       id="path847" />
    <path
       d="m 63.31426,20.776471 q 0,-1.674131 0.676776,-3.098923 0.712396,-1.424792 1.88785,-2.457766 1.211073,-1.032975 2.778344,-1.638511 1.602891,-0.605537 3.383881,-0.605537 2.778345,0 4.808673,0.997355 2.065949,0.961734 3.098923,2.244047 0.249339,0.320578 -0.03562,0.569917 l -2.457766,2.564625 q -0.142479,0.14248 -0.356198,0.14248 -0.178099,0 -0.320578,-0.178099 -0.320578,-0.356198 -0.819256,-0.712396 -0.463057,-0.356198 -1.104213,-0.641157 -0.605537,-0.320578 -1.317933,-0.498677 -0.712396,-0.178099 -1.460412,-0.178099 -0.890495,0 -1.638511,0.284958 -0.712396,0.249339 -1.211073,0.676777 -0.498677,0.427437 -0.783636,0.997354 -0.284958,0.569917 -0.284958,1.211073 0,1.032975 0.676776,1.78099 0.676776,0.748016 2.030329,1.032975 l 3.49074,0.676776 q 1.709751,0.320578 2.992064,1.032974 1.317932,0.676776 2.172807,1.638511 0.890495,0.961734 1.353553,2.172808 0.463057,1.175453 0.463057,2.493386 0,1.424792 -0.605536,2.813964 -0.569917,1.389172 -1.745371,2.493386 -1.139833,1.104214 -2.813964,1.78099 -1.67413,0.641156 -3.846938,0.641156 -1.531652,0 -2.885204,-0.320578 -1.317933,-0.320578 -2.422147,-0.819255 -1.068594,-0.534297 -1.887849,-1.139834 -0.819255,-0.641156 -1.353552,-1.246693 -0.249339,-0.249338 0,-0.569917 l 2.244047,-2.885204 q 0.106859,-0.178099 0.284958,-0.178099 0.213719,-0.03562 0.356198,0.10686 0.498678,0.463057 1.104214,0.961735 0.605537,0.463057 1.317933,0.854875 0.712396,0.391818 1.531651,0.641156 0.819256,0.249339 1.745371,0.249339 1.959089,0 2.992063,-0.854875 1.032974,-0.854876 1.032974,-2.208428 0,-1.068594 -0.783636,-1.85223 -0.748015,-0.819255 -2.244047,-1.104214 L 69.868303,27.93605 Q 66.87624,27.330514 65.09525,25.478284 63.31426,23.626055 63.31426,20.776471 Z"
       style="font-style:normal;font-variant:normal;font-weight:normal;font-stretch:normal;font-size:35.6198px;line-height:1.25;font-family:VALORANT;-inkscape-font-specification:VALORANT;fill:url(#linearGradient861);fill-opacity:1;stroke:none;stroke-width:0.890497"
       id="path850" />
    <path
       d="m 85.428591,13.474411 h 18.807259 q 0.42743,0 0.42743,0.427438 v 5.236111 q 0,0.498677 -0.28496,0.890495 l -4.55933,5.912887 4.55933,5.912886 q 0.28496,0.391818 0.28496,0.890495 v 5.236111 q 0,0.427438 -0.42743,0.427438 H 85.428591 q -0.178099,0 -0.320579,-0.10686 -0.106859,-0.142479 -0.106859,-0.320578 V 13.901849 q 0,-0.178099 0.106859,-0.284958 0.14248,-0.14248 0.320579,-0.14248 z M 99.997089,33.884557 94.119822,26.2263 q -0.178099,-0.284958 0,-0.534297 l 5.877267,-7.693877 H 89.560487 v 15.886431 z"
       style="font-style:normal;font-variant:normal;font-weight:normal;font-stretch:normal;font-size:35.6198px;line-height:1.25;font-family:VALORANT;-inkscape-font-specification:VALORANT;fill:url(#linearGradient863);fill-opacity:1;stroke:none;stroke-width:0.890497"
       id="path852" />
    <path
       d="m 107.48838,37.838355 9.18991,-11.968253 -9.18991,-11.968253 q -0.14248,-0.142479 -0.0356,-0.320578 0.10686,-0.178099 0.28496,-0.178099 h 4.52371 q 0.7124,0 1.17545,0.569917 l 6.19785,8.050075 6.16222,-8.050075 q 0.46306,-0.569917 1.17546,-0.569917 h 4.52371 q 0.21372,0 0.28496,0.178099 0.10686,0.178099 -0.0356,0.320578 l -9.18991,11.968253 9.18991,11.968253 q 0.14248,0.178099 0.0356,0.356198 -0.0712,0.142479 -0.28496,0.142479 h -4.52371 q -0.7124,0 -1.17546,-0.569917 l -6.16222,-8.050075 -6.19785,8.050075 q -0.46305,0.569917 -1.17545,0.569917 h -4.52371 q -0.1781,0 -0.28496,-0.142479 -0.10686,-0.178099 0.0356,-0.356198 z"
       style="font-style:normal;font-variant:normal;font-weight:normal;font-stretch:normal;font-size:35.6198px;line-height:1.25;font-family:VALORANT;-inkscape-font-specification:VALORANT;fill:url(#linearGradient865);fill-opacity:1;stroke:none;stroke-width:0.890497"
       id="path854" />
  </g>
</svg>
