<?xml version="1.0" encoding="UTF-8" standalone="no"?>
<svg
   xmlns:dc="http://purl.org/dc/elements/1.1/"
   xmlns:cc="http://creativecommons.org/ns#"
   xmlns:rdf="http://www.w3.org/1999/02/22-rdf-syntax-ns#"
   xmlns:svg="http://www.w3.org/2000/svg"
   xmlns="http://www.w3.org/2000/svg"
   xmlns:xlink="http://www.w3.org/1999/xlink"
   xmlns:sodipodi="http://sodipodi.sourceforge.net/DTD/sodipodi-0.dtd"
   xmlns:inkscape="http://www.inkscape.org/namespaces/inkscape"
   width="500"
   height="100"
   viewBox="0 0 132.29166 26.458334"
   version="1.1"
   id="svg8"
   inkscape:version="1.0.2 (1.0.2+r75+1)"
   sodipodi:docname="Logo.svg">
  <defs
     id="defs2">
    <linearGradient
       inkscape:collect="always"
       id="linearGradient925">
      <stop
         style="stop-color:#00ffff;stop-opacity:1"
         offset="0"
         id="stop921" />
      <stop
         style="stop-color:#ff00ff;stop-opacity:1"
         offset="1"
         id="stop923" />
    </linearGradient>
    <inkscape:path-effect
       effect="offset"
       id="path-effect904"
       is_visible="true"
       lpeversion="1"
       linejoin_type="round"
       unit="px"
       offset="8"
       miter_limit="4"
       attempt_force_join="true"
       update_on_knot_move="true" />
    <linearGradient
       inkscape:collect="always"
       xlink:href="#linearGradient925"
       id="linearGradient927"
       x1="-2.4279103"
       y1="-79.184868"
       x2="3.5569453"
       y2="-74.454132"
       gradientUnits="userSpaceOnUse" />
    <linearGradient
       inkscape:collect="always"
       xlink:href="#linearGradient925"
       id="linearGradient929"
       gradientUnits="userSpaceOnUse"
       x1="-2.4279103"
       y1="-79.184868"
       x2="3.5569453"
       y2="-74.454132" />
    <linearGradient
       inkscape:collect="always"
       xlink:href="#linearGradient925"
       id="linearGradient931"
       gradientUnits="userSpaceOnUse"
       x1="-2.4279103"
       y1="-79.184868"
       x2="3.5569453"
       y2="-74.454132" />
  </defs>
  <sodipodi:namedview
     id="base"
     pagecolor="#ffffff"
     bordercolor="#666666"
     borderopacity="1.0"
     inkscape:pageopacity="0.0"
     inkscape:pageshadow="2"
     inkscape:zoom="1.4"
     inkscape:cx="228.4958"
     inkscape:cy="-47.688035"
     inkscape:document-units="px"
     inkscape:current-layer="layer1"
     inkscape:document-rotation="0"
     showgrid="false"
     units="px"
     inkscape:window-width="1352"
     inkscape:window-height="689"
     inkscape:window-x="7"
     inkscape:window-y="40"
     inkscape:window-maximized="1" />
  <metadata
     id="metadata5">
    <rdf:RDF>
      <cc:Work
         rdf:about="">
        <dc:format>image/svg+xml</dc:format>
        <dc:type
           rdf:resource="http://purl.org/dc/dcmitype/StillImage" />
        <dc:title></dc:title>
      </cc:Work>
    </rdf:RDF>
  </metadata>
  <g
     inkscape:label="Layer 1"
     inkscape:groupmode="layer"
     id="layer1">
    <g
       id="g948"
       transform="translate(44.279499,82.235024)">
      <g
         id="g891"
         style="opacity:0.998;fill:#666666"
         inkscape:path-effect="#path-effect904"
         inkscape:export-xdpi="96"
         inkscape:export-ydpi="96"
         transform="matrix(2.6893909,0,0,2.6893909,69.918177,137.41864)">
        <g
           aria-label="CLSBX"
           id="text883"
           style="font-size:10.5833px;line-height:1.25;font-family:Abel;-inkscape-font-specification:Abel;letter-spacing:0px;word-spacing:0px;fill:#666666;stroke-width:0.264583">
          <path
             d="m -36.828125,-81.410156 c -0.642809,-0.0085 -1.24336,0.106791 -1.816406,0.349609 -0.556746,0.228727 -1.049972,0.551866 -1.476563,0.978516 -0.409067,0.417588 -0.731593,0.902546 -0.972656,1.451172 a 0.78704313,0.78704313 0 0 0 -0.0039,0.0098 c -0.242461,0.571514 -0.357422,1.180061 -0.357422,1.820313 0,0.637552 0.110871,1.245324 0.341797,1.818359 0.226369,0.561734 0.543513,1.059382 0.960937,1.494141 0.41227,0.420858 0.89509,0.749318 1.439453,0.992187 a 0.78704313,0.78704313 0 0 0 0.01367,0.0059 c 0.566909,0.240508 1.167823,0.359432 1.789063,0.359375 0.695925,0.0084 1.345988,-0.121331 1.964844,-0.404297 0.590408,-0.278335 1.096216,-0.652687 1.529296,-1.136719 a 0.78704313,0.78704313 0 0 0 0.04297,-0.05273 c 0.151062,-0.201397 0.172001,-0.405151 0.144531,-0.638672 -0.01979,-0.263715 -0.09911,-0.477155 -0.322265,-0.644531 l 0.03711,0.0293 -0.835937,-0.708984 0.04687,0.04297 c -0.20557,-0.20557 -0.417259,-0.261732 -0.728516,-0.222657 -0.258894,0.02176 -0.471371,0.09791 -0.636719,0.31836 l 0.02734,-0.03516 c -0.154921,0.183968 -0.343439,0.333828 -0.554687,0.439453 -0.200608,0.100305 -0.419542,0.152399 -0.650391,0.158203 -0.229429,-0.0011 -0.436942,-0.04274 -0.626953,-0.123047 -0.202783,-0.09269 -0.382009,-0.21896 -0.53711,-0.378906 -0.155966,-0.160841 -0.282988,-0.351476 -0.380859,-0.578125 -0.08859,-0.205143 -0.136719,-0.434926 -0.136719,-0.681641 0,-0.25399 0.04639,-0.486 0.132813,-0.697265 0.09256,-0.226253 0.214617,-0.415963 0.363281,-0.574219 a 0.78704313,0.78704313 0 0 0 0.0078,-0.0078 c 0.145492,-0.15957 0.31557,-0.284498 0.515626,-0.375 a 0.78704313,0.78704313 0 0 0 0.01367,-0.0059 c 0.192795,-0.09181 0.403081,-0.141887 0.619141,-0.146485 0.239632,-0.0046 0.458394,0.04636 0.654297,0.146485 a 0.78704313,0.78704313 0 0 0 0.01172,0.0059 c 0.218787,0.106963 0.413501,0.256043 0.576172,0.44336 l -0.03516,-0.04297 c 0.152883,0.203878 0.342905,0.308052 0.560547,0.351562 a 0.78704313,0.78704313 0 0 0 0.154297,0.01563 c 0.222727,0 0.388188,-0.05578 0.566406,-0.189453 a 0.78704313,0.78704313 0 0 0 0.03711,-0.0293 l 0.835937,-0.708984 -0.03711,0.0293 c 0.237482,-0.178129 0.30485,-0.349705 0.322265,-0.642578 0.02747,-0.233522 0.0065,-0.437275 -0.144531,-0.638672 a 0.78704313,0.78704313 0 0 0 -0.04102,-0.05078 c -0.425198,-0.476221 -0.932707,-0.85258 -1.511719,-1.121094 -0.591878,-0.278533 -1.223919,-0.415456 -1.902344,-0.423828 z m 3.599609,2.234375 c -0.0036,0.03075 0.02598,0.05171 0.01953,0.08398 l 0.01563,-0.154297 c 0,0.03591 -0.03325,0.03829 -0.03516,0.07031 z m -1.802734,3.308593 c 0.03177,-0.0027 0.0443,-0.03906 0.07813,-0.03906 l -0.154297,0.01563 c 0.03548,-0.0071 0.04361,0.02752 0.07617,0.02344 z m 1.802734,1.503907 c 0.0022,0.02877 0.03516,0.03987 0.03516,0.07031 l -0.01563,-0.154297 c 0.0065,0.03227 -0.02315,0.05324 -0.01953,0.08398 z"
             style="font-style:normal;font-variant:normal;font-weight:normal;font-stretch:normal;font-family:VALORANT;-inkscape-font-specification:VALORANT;fill:#666666;stroke-width:0.264583"
             id="path893"
             inkscape:original-d="m -40.668897,-76.801731 q 0,-0.814914 0.296332,-1.513412 0.306916,-0.698498 0.814915,-1.217079 0.518581,-0.518582 1.217079,-0.804331 0.698498,-0.296333 1.502829,-0.285749 0.857247,0.01058 1.576911,0.349249 0.730248,0.338665 1.259413,0.93133 0.03175,0.04233 0.02117,0.09525 0,0.05292 -0.04233,0.08467 l -0.83608,0.709081 q -0.04233,0.03175 -0.09525,0.03175 -0.05292,-0.01058 -0.08467,-0.05292 -0.349248,-0.402165 -0.825497,-0.634998 -0.476248,-0.243415 -1.02658,-0.232832 -0.497415,0.01058 -0.941914,0.222249 -0.444498,0.201083 -0.772581,0.560915 -0.328082,0.349249 -0.518581,0.814914 -0.1905,0.465665 -0.1905,0.99483 0,0.529165 0.201083,0.99483 0.201083,0.465666 0.539748,0.814915 0.338666,0.349248 0.783165,0.550331 0.444498,0.1905 0.952497,0.1905 0.529165,-0.01058 0.99483,-0.243416 0.465665,-0.232833 0.80433,-0.634998 0.03175,-0.04233 0.08467,-0.04233 0.05292,-0.01058 0.09525,0.03175 l 0.83608,0.709081 q 0.04233,0.03175 0.04233,0.08467 0.01058,0.05292 -0.02117,0.09525 -0.539748,0.603248 -1.280579,0.952496 -0.740831,0.338666 -1.619245,0.328083 -0.793748,0 -1.492246,-0.296333 -0.687914,-0.306915 -1.195912,-0.825497 -0.507999,-0.529165 -0.793748,-1.238246 -0.285749,-0.709081 -0.285749,-1.523995 z" />
          <path
             d="m -32.660156,-81.261719 c -0.309451,0 -0.49479,0.117837 -0.650391,0.273438 -0.190992,0.190991 -0.263672,0.381591 -0.263672,0.640625 v 7.154297 c 0,0.225471 0.07831,0.417577 0.191407,0.568359 a 0.78704313,0.78704313 0 0 0 0.15625,0.15625 c 0.1782,0.133657 0.34366,0.189453 0.566406,0.189453 h 3.144531 c 0.403536,0 0.708842,-0.163135 0.949219,-0.458984 a 0.78704313,0.78704313 0 0 0 0.01172,-0.01563 l 0.792969,-1.027344 a 0.78704313,0.78704313 0 0 0 0.0059,-0.0078 c 0.219142,-0.292163 0.170711,-0.640778 0.04297,-0.900391 -0.155845,-0.298345 -0.46556,-0.507813 -0.755859,-0.507813 h -2.175781 v -5.15039 c 0,-0.557477 -0.440964,-0.914063 -0.925781,-0.914063 z m 4.947265,6.572266 c 0.01205,0.02307 0.0488,0.01457 0.05859,0.03906 l -0.05469,-0.111328 c 0.01167,0.01945 -0.01416,0.05142 -0.0039,0.07227 z"
             style="font-style:normal;font-variant:normal;font-weight:normal;font-stretch:normal;font-family:VALORANT;-inkscape-font-specification:VALORANT;fill:#666666;stroke-width:0.264583"
             id="path895"
             inkscape:original-d="m -32.659489,-80.474136 h 1.09008 q 0.137583,0 0.137583,0.126999 v 5.937232 h 2.963324 q 0.0635,0 0.08467,0.05292 0.03175,0.05292 0,0.09525 l -0.793747,1.02658 q -0.137583,0.169333 -0.338666,0.169333 h -3.14324 q -0.05292,0 -0.09525,-0.03175 -0.03175,-0.04233 -0.03175,-0.09525 v -7.154311 q 0,-0.05292 0.03175,-0.08467 0.04233,-0.04233 0.09525,-0.04233 z" />
          <path
             d="m -25.164062,-81.410156 c -0.444413,0 -0.872536,0.07504 -1.289063,0.232422 -0.391294,0.151181 -0.743721,0.357809 -1.054687,0.623046 a 0.78704313,0.78704313 0 0 0 -0.0078,0.0078 c -0.311288,0.273557 -0.558591,0.599603 -0.744141,0.970703 a 0.78704313,0.78704313 0 0 0 -0.0078,0.01367 c -0.188182,0.396175 -0.277345,0.813367 -0.277344,1.257812 0,0.749044 0.240348,1.411367 0.75,1.941407 0.412323,0.428814 0.96837,0.650781 1.558594,0.816406 -0.192317,-0.180647 -0.428658,-0.244029 -0.691406,-0.220703 -0.317554,0.02744 -0.570847,0.185125 -0.701172,0.402344 l 0.05469,-0.08008 -0.667969,0.859374 c -0.258006,0.331753 -0.302454,0.831117 0.06055,1.201172 0.138404,0.152726 0.299017,0.300929 0.478516,0.441407 a 0.78704313,0.78704313 0 0 0 0.01563,0.01367 c 0.205,0.151523 0.433222,0.285947 0.677734,0.408204 a 0.78704313,0.78704313 0 0 0 0.02734,0.01367 c 0.267265,0.120699 0.555043,0.218006 0.863281,0.292968 0.335542,0.07947 0.683462,0.115235 1.039063,0.115235 0.506228,0 0.985295,-0.07424 1.423828,-0.242188 a 0.78704313,0.78704313 0 0 0 0.01367,-0.0039 c 0.41385,-0.167301 0.777698,-0.39528 1.085937,-0.693359 0.301315,-0.284767 0.539136,-0.617143 0.697266,-0.998047 0.159041,-0.366841 0.244141,-0.749837 0.244141,-1.144532 0,-0.358368 -0.06505,-0.702786 -0.191407,-1.023437 -0.127335,-0.333033 -0.313026,-0.629989 -0.552734,-0.890625 -0.237748,-0.266385 -0.528492,-0.482152 -0.861328,-0.654297 -0.131953,-0.0724 -0.290955,-0.09782 -0.433594,-0.152344 0.265781,-0.0019 0.462747,-0.07798 0.654297,-0.269531 a 0.78704313,0.78704313 0 0 0 0.01172,-0.01172 l 0.730469,-0.761718 -0.05078,0.04687 c 0.408364,-0.357347 0.404429,-0.869785 0.113282,-1.24414 a 0.78704313,0.78704313 0 0 0 -0.0078,-0.01172 c -0.297565,-0.369391 -0.719444,-0.657731 -1.197266,-0.880859 -0.528075,-0.257111 -1.121395,-0.375 -1.763671,-0.375 z m 1.763671,0.375 c 0.0035,0.0017 0.0082,2.48e-4 0.01172,0.002 l -0.01563,-0.0059 c 0.0018,8.18e-4 0.0022,0.0031 0.0039,0.0039 z m 0.179688,3.285156 c 0.0048,0.0026 0.01085,0.0032 0.01563,0.0059 l -0.02344,-0.01172 c 0.003,0.0015 0.0048,0.0043 0.0078,0.0059 z m -4.960938,4.365234 c -0.0085,-0.0094 -0.02097,-0.01791 -0.0293,-0.02734 l 0.0332,0.03516 c -0.0024,-0.0024 -0.0015,-0.0054 -0.0039,-0.0078 z m 1.253907,-2.382812 c 0.02645,-0.0023 0.03093,-0.0332 0.05859,-0.0332 l -0.128906,0.01172 c 0.02726,-0.0045 0.0437,0.02385 0.07031,0.02148 z m 1.773437,-2.78711 c 0.08539,0 0.165294,0.01007 0.242188,0.0293 0.08418,0.02104 0.155178,0.04849 0.214843,0.08008 a 0.78704313,0.78704313 0 0 0 0.04883,0.02344 c 0.07802,0.03467 0.131627,0.06775 0.167969,0.0957 a 0.78704313,0.78704313 0 0 0 0.02344,0.01758 c 0.06343,0.04531 0.09522,0.07759 0.113281,0.09766 l -0.0293,-0.03516 c 0.148374,0.1855 0.348437,0.312074 0.669922,0.328125 -0.206496,-0.07558 -0.399489,-0.176841 -0.623047,-0.21875 l -1.035156,-0.201172 h -0.002 c -0.113408,-0.02682 -0.169924,-0.06055 -0.169922,-0.06055 l 0.002,-0.002 c 0,0 -6e-6,-0.0078 0,-0.0078 0.0092,-0.01843 0.02171,-0.03423 0.04102,-0.05078 0.01298,-0.01113 0.04508,-0.03414 0.109375,-0.05664 a 0.78704313,0.78704313 0 0 0 0.01953,-0.0059 c 0.04656,-0.01774 0.115119,-0.0332 0.207031,-0.0332 z m -1.033203,3.033204 c 0.08361,0.02221 0.132214,0.09772 0.21875,0.115234 l 1.037109,0.212891 a 0.78704313,0.78704313 0 0 0 0.01172,0.002 c 0.181763,0.03462 0.229172,0.08452 0.230469,0.08594 a 0.78704313,0.78704313 0 0 0 0.02539,0.02539 c -0.0032,0.01462 -0.01105,0.03595 -0.01953,0.04297 -0.01801,0.0149 -0.112127,0.07227 -0.386718,0.07227 -0.110201,0 -0.206993,-0.01604 -0.289063,-0.04102 -0.115808,-0.03525 -0.216461,-0.07648 -0.304687,-0.125 -0.109273,-0.0601 -0.204621,-0.12132 -0.289063,-0.185547 -0.0013,-0.001 -0.0026,-0.0029 -0.0039,-0.0039 -0.08606,-0.07136 -0.160858,-0.137841 -0.230469,-0.201172 z"
             style="font-style:normal;font-variant:normal;font-weight:normal;font-stretch:normal;font-family:VALORANT;-inkscape-font-specification:VALORANT;fill:#666666;stroke-width:0.264583"
             id="path897"
             inkscape:original-d="m -27.757933,-78.30456 q 0,-0.497415 0.201082,-0.920747 0.211666,-0.423332 0.560915,-0.730247 0.359832,-0.306916 0.825498,-0.486832 0.476248,-0.179916 1.005413,-0.179916 0.825497,0 1.428746,0.296332 0.613831,0.285749 0.920747,0.666748 0.07408,0.09525 -0.01058,0.169333 l -0.730247,0.761997 q -0.04233,0.04233 -0.105833,0.04233 -0.05292,0 -0.09525,-0.05292 -0.09525,-0.105833 -0.243416,-0.211666 -0.137583,-0.105833 -0.328082,-0.190499 -0.179916,-0.09525 -0.391582,-0.148167 -0.211666,-0.05292 -0.433916,-0.05292 -0.264582,0 -0.486831,0.08467 -0.211666,0.07408 -0.359833,0.201083 -0.148166,0.127 -0.232832,0.296332 -0.08467,0.169333 -0.08467,0.359833 0,0.306915 0.201083,0.529165 0.201083,0.222249 0.603248,0.306915 l 1.037164,0.201083 q 0.507998,0.09525 0.888997,0.306916 0.391582,0.201082 0.645581,0.486831 0.264582,0.285749 0.402165,0.645582 0.137583,0.349249 0.137583,0.740831 0,0.423332 -0.179916,0.83608 -0.169333,0.412749 -0.518582,0.740831 -0.338665,0.328083 -0.83608,0.529165 -0.497415,0.1905 -1.142997,0.1905 -0.455081,0 -0.857247,-0.09525 -0.391582,-0.09525 -0.719664,-0.243416 -0.317499,-0.158749 -0.560915,-0.338665 -0.243416,-0.1905 -0.402165,-0.370416 -0.07408,-0.07408 0,-0.169333 l 0.666747,-0.857247 q 0.03175,-0.05292 0.08467,-0.05292 0.0635,-0.01058 0.105833,0.03175 0.148166,0.137583 0.328082,0.285749 0.179916,0.137583 0.391582,0.254 0.211666,0.116416 0.455082,0.190499 0.243416,0.07408 0.518582,0.07408 0.582081,0 0.888997,-0.253999 0.306916,-0.253999 0.306916,-0.656165 0,-0.317499 -0.232833,-0.550331 -0.222249,-0.243416 -0.666748,-0.328083 l -1.037163,-0.211666 q -0.888997,-0.179916 -1.418162,-0.730247 -0.529165,-0.550332 -0.529165,-1.396996 z" />
          <path
             d="m -21.1875,-81.261719 c -0.282034,0 -0.495038,0.116132 -0.652344,0.273438 -0.212387,0.212387 -0.261718,0.417898 -0.261718,0.640625 v 7.154297 c 0,0.203982 0.05526,0.389454 0.189453,0.568359 a 0.78704313,0.78704313 0 0 0 0.15625,0.15625 c 0.178889,0.134174 0.36436,0.189453 0.568359,0.189453 h 5.587891 c 0.510517,0 0.914062,-0.403545 0.914062,-0.914062 v -1.554688 c 0,-0.263341 -0.0686,-0.500591 -0.234375,-0.728515 a 0.78704313,0.78704313 0 0 0 -0.01367,-0.01758 l -0.984375,-1.27539 0.984375,-1.277344 a 0.78704313,0.78704313 0 0 0 0.01367,-0.01758 c 0.161619,-0.222212 0.234375,-0.463222 0.234375,-0.726563 v -1.55664 c 0,-0.510518 -0.403545,-0.914063 -0.914062,-0.914063 z"
             style="font-style:normal;font-variant:normal;font-weight:normal;font-stretch:normal;font-family:VALORANT;-inkscape-font-specification:VALORANT;fill:#666666;stroke-width:0.264583"
             id="path899"
             inkscape:original-d="m -21.187356,-80.474136 h 5.587982 q 0.126999,0 0.126999,0.126999 v 1.555745 q 0,0.148167 -0.08467,0.264583 l -1.354662,1.756828 1.354662,1.756827 q 0.08467,0.116417 0.08467,0.264583 v 1.555745 q 0,0.127 -0.126999,0.127 h -5.587982 q -0.05292,0 -0.09525,-0.03175 -0.03175,-0.04233 -0.03175,-0.09525 v -7.154311 q 0,-0.05292 0.03175,-0.08467 0.04233,-0.04233 0.09525,-0.04233 z m 4.328569,6.064231 -1.746244,-2.27541 q -0.05292,-0.08467 0,-0.158749 l 1.746244,-2.285993 h -3.100907 v 4.720152 z" />
          <path
             d="m -14.558594,-81.283203 c -0.359775,0 -0.606806,0.177334 -0.761718,0.435547 -0.206732,0.344568 -0.146261,0.779521 0.130859,1.05664 l -0.06836,-0.07813 2.363281,3.078125 -2.353516,3.064454 c -3.74e-4,4.67e-4 3.74e-4,0.0015 0,0.002 -0.192194,0.241491 -0.273169,0.665145 -0.07226,1 a 0.78704313,0.78704313 0 0 0 0.04687,0.06836 c 0.234225,0.312285 0.394127,0.355469 0.714844,0.355469 h 1.34375 c 0.397117,0 0.71027,-0.150473 0.960938,-0.458985 a 0.78704313,0.78704313 0 0 0 0.01172,-0.01563 l 1.216797,-1.580078 1.2070316,1.578125 a 0.78704313,0.78704313 0 0 0 0.013672,0.01758 c 0.2506669,0.308512 0.5638201,0.458985 0.9609375,0.458985 H -7.5 c 0.2698108,0 0.5370564,-0.05539 0.7578125,-0.458985 0.179622,-0.330327 0.1473342,-0.694015 -0.068359,-0.964843 l -2.3535156,-3.066407 2.3632813,-3.078125 -0.068359,0.07813 c 0.2984247,-0.298403 0.2874889,-0.660115 0.1210937,-0.988281 -0.1570424,-0.29519 -0.4633689,-0.503906 -0.7519531,-0.503906 h -1.34375 c -0.4061948,0 -0.7137727,0.156733 -0.9609375,0.460937 a 0.78704313,0.78704313 0 0 0 -0.013672,0.01758 l -1.2070313,1.578126 -1.216797,-1.580079 a 0.78704313,0.78704313 0 0 0 -0.01172,-0.01563 c -0.247166,-0.304204 -0.554743,-0.460937 -0.960938,-0.460937 z m 7.8105471,0.503906 c 0.013158,0.02473 0.05195,0.01659 0.0625,0.04297 l -0.054688,-0.111328 c 0.013385,0.02231 -0.019311,0.04568 -0.00781,0.06836 z m 0.00586,8.019531 c -0.00654,0.01202 0.00911,0.02323 0.00195,0.03516 l 0.027344,-0.05273 c -0.00836,0.01671 -0.020784,0.002 -0.029297,0.01758 z"
             style="font-style:normal;font-variant:normal;font-weight:normal;font-stretch:normal;font-family:VALORANT;-inkscape-font-specification:VALORANT;fill:#666666;stroke-width:0.264583"
             id="path901"
             inkscape:original-d="m -14.632987,-73.235159 2.730491,-3.555989 -2.730491,-3.555989 q -0.04233,-0.04233 -0.01058,-0.09525 0.03175,-0.05292 0.08467,-0.05292 h 1.344079 q 0.211666,0 0.349249,0.169333 l 1.841494,2.391826 1.8309106,-2.391826 q 0.1375829,-0.169333 0.3492488,-0.169333 h 1.3440791 q 0.0635,0 0.084666,0.05292 0.03175,0.05292 -0.010583,0.09525 l -2.7304915,3.555989 2.7304915,3.555989 q 0.042333,0.05292 0.010583,0.105833 -0.021167,0.04233 -0.084666,0.04233 h -1.3440791 q -0.2116659,0 -0.3492488,-0.169333 l -1.8309106,-2.391826 -1.841494,2.391826 q -0.137583,0.169333 -0.349249,0.169333 h -1.344079 q -0.05292,0 -0.08467,-0.04233 -0.03175,-0.05292 0.01058,-0.105833 z" />
        </g>
        <g
           aria-label="73"
           id="g889"
           style="font-size:10.5833px;line-height:1.25;font-family:Abel;-inkscape-font-specification:Abel;letter-spacing:0px;word-spacing:0px;fill:#666666;fill-opacity:1;stroke-width:0.264583">
          <path
             d="m -6.1113281,-81.316406 c -0.3597782,0 -0.6185923,0.200237 -0.7597657,0.435547 -0.2038348,0.339697 -0.1532327,0.719314 0.070313,1 4.344e-4,5.45e-4 -4.358e-4,0.0014 0,0.002 l 0.7695312,0.998047 c 0.2530311,0.337373 0.5865291,0.482421 0.9785156,0.482421 h 1.8378906 V -73.248 c 0,0.484811 0.3565883,0.925781 0.9140626,0.925781 h 1.0898437 c 0.55747521,0 0.9140625,-0.440969 0.9140625,-0.925781 v -7.142578 c 0,-0.484812 -0.35658729,-0.925781 -0.9140625,-0.925781 z"
             style="font-style:normal;font-variant:normal;font-weight:normal;font-stretch:normal;font-family:VALORANT;-inkscape-font-specification:VALORANT;fill:#666666;fill-opacity:1;stroke-width:0.264583"
             id="path885"
             inkscape:original-d="m -6.1108987,-80.528946 h 4.9000678 q 0.1269995,0 0.1269995,0.137583 v 7.143727 q 0,0.137583 -0.1269995,0.137583 h -1.0900799 q -0.1269996,0 -0.1269996,-0.137583 v -5.937231 h -2.6246583 q -0.2222493,0 -0.3492489,-0.169332 l -0.7831642,-1.015997 q -0.042333,-0.05292 -0.010583,-0.105833 0.03175,-0.05292 0.084666,-0.05292 z" />
          <path
             d="m 0.57226562,-81.316406 c -0.28206484,0 -0.49505412,0.116159 -0.65234374,0.273437 a 0.78704313,0.78704313 0 0 0 -0.07226563,0.08398 c -0.13418427,0.178898 -0.18945313,0.36437 -0.18945313,0.568359 v 1.078125 c 0,0.203989 0.0552689,0.389461 0.18945313,0.568359 a 0.78704313,0.78704313 0 0 0 0.07226563,0.08398 c 0.15728962,0.157278 0.3702789,0.273437 0.65234374,0.273437 H 1.9550781 l -0.7519531,0.976563 c -0.31071474,0.362487 -0.28552299,0.806225 -0.027344,1.15039 l 0.78125,1.017578 H 0.57226562 c -0.28206484,0 -0.495041,0.116147 -0.65234374,0.273438 -0.20189934,0.201894 -0.26171876,0.447962 -0.26171876,0.642578 v 1.078125 c 0,0.203989 0.0552689,0.389461 0.18945313,0.568359 a 0.78704313,0.78704313 0 0 0 0.07226563,0.08398 c 0.15728962,0.157278 0.3702789,0.273437 0.65234374,0.273437 H 4.8066406 c 0.5574748,0 0.9140625,-0.440969 0.9140625,-0.925781 v -1.544922 c 0,-0.275027 -0.08045,-0.512228 -0.2363281,-0.726562 a 0.78704313,0.78704313 0 0 0 -0.013672,-0.01758 L 4.4882811,-76.81447 5.470703,-78.089861 a 0.78704313,0.78704313 0 0 0 0.046875,-0.06836 c 0.1171883,-0.190434 0.203125,-0.421788 0.203125,-0.6875 v -1.544922 c 0,-0.484812 -0.3565877,-0.925781 -0.9140625,-0.925781 z"
             style="font-style:normal;font-variant:normal;font-weight:normal;font-stretch:normal;font-family:VALORANT;-inkscape-font-specification:VALORANT;fill:#666666;fill-opacity:1;stroke-width:0.264583"
             id="path887"
             inkscape:original-d="m 0.44545532,-73.247636 v -1.079496 q 0,-0.05292 0.0317499,-0.08467 0.0423332,-0.04233 0.0952497,-0.04233 H 3.5569454 l -1.7568277,-2.285992 q -0.0635,-0.08467 0,-0.15875 l 1.7568277,-2.275409 H 0.57245492 q -0.0529165,0 -0.0952497,-0.04233 -0.0317499,-0.04233 -0.0317499,-0.09525 v -1.079497 q 0,-0.05292 0.0317499,-0.09525 0.0423332,-0.04233 0.0952497,-0.04233 H 4.8057748 q 0.1269996,0 0.1269996,0.137583 v 1.545162 q 0,0.137583 -0.084666,0.275166 l -1.3546624,1.756827 1.3546624,1.756828 q 0.084666,0.116416 0.084666,0.264583 v 1.545161 q 0,0.137583 -0.1269996,0.137583 H 0.57245492 q -0.0529165,0 -0.0952497,-0.04233 -0.0317499,-0.04233 -0.0317499,-0.09525 z" />
        </g>
      </g>
      <text
         xml:space="preserve"
         style="font-size:28.4627px;line-height:1.25;font-family:Abel;-inkscape-font-specification:Abel;letter-spacing:0px;word-spacing:0px;fill:#cccccc;stroke-width:0.711566"
         x="-40.737206"
         y="-59.083935"
         id="text835"
         inkscape:export-xdpi="96"
         inkscape:export-ydpi="96"><tspan
           sodipodi:role="line"
           id="tspan833"
           x="-40.737206"
           y="-59.083935"
           style="font-style:normal;font-variant:normal;font-weight:normal;font-stretch:normal;font-family:VALORANT;-inkscape-font-specification:VALORANT;fill:#cccccc;stroke-width:0.711566">CLSBX</tspan></text>
      <g
         aria-label="73"
         id="text839"
         style="font-size:10.5833px;line-height:1.25;font-family:Abel;-inkscape-font-specification:Abel;letter-spacing:0px;word-spacing:0px;fill:url(#linearGradient927);fill-opacity:1;stroke-width:0.264583"
         inkscape:export-xdpi="96"
         inkscape:export-ydpi="96"
         transform="matrix(2.6893909,0,0,2.6893909,69.918177,137.41864)">
        <path
           d="m -6.1108987,-80.528946 h 4.9000678 q 0.1269995,0 0.1269995,0.137583 v 7.143727 q 0,0.137583 -0.1269995,0.137583 h -1.0900799 q -0.1269996,0 -0.1269996,-0.137583 v -5.937231 h -2.6246583 q -0.2222493,0 -0.3492489,-0.169332 l -0.7831642,-1.015997 q -0.042333,-0.05292 -0.010583,-0.105833 0.03175,-0.05292 0.084666,-0.05292 z"
           style="font-style:normal;font-variant:normal;font-weight:normal;font-stretch:normal;font-family:VALORANT;-inkscape-font-specification:VALORANT;fill:url(#linearGradient929);fill-opacity:1;stroke-width:0.264583"
           id="path841" />
        <path
           d="m 0.44545532,-73.247636 v -1.079496 q 0,-0.05292 0.0317499,-0.08467 0.0423332,-0.04233 0.0952497,-0.04233 H 3.5569454 l -1.7568277,-2.285992 q -0.0635,-0.08467 0,-0.15875 l 1.7568277,-2.275409 H 0.57245492 q -0.0529165,0 -0.0952497,-0.04233 -0.0317499,-0.04233 -0.0317499,-0.09525 v -1.079497 q 0,-0.05292 0.0317499,-0.09525 0.0423332,-0.04233 0.0952497,-0.04233 H 4.8057748 q 0.1269996,0 0.1269996,0.137583 v 1.545162 q 0,0.137583 -0.084666,0.275166 l -1.3546624,1.756827 1.3546624,1.756828 q 0.084666,0.116416 0.084666,0.264583 v 1.545161 q 0,0.137583 -0.1269996,0.137583 H 0.57245492 q -0.0529165,0 -0.0952497,-0.04233 -0.0317499,-0.04233 -0.0317499,-0.09525 z"
           style="font-style:normal;font-variant:normal;font-weight:normal;font-stretch:normal;font-family:VALORANT;-inkscape-font-specification:VALORANT;fill:url(#linearGradient931);fill-opacity:1;stroke-width:0.264583"
           id="path843" />
      </g>
    </g>
  </g>
</svg>
