<?xml version="1.0" encoding="UTF-8" standalone="no"?>
<svg
   xmlns:dc="http://purl.org/dc/elements/1.1/"
   xmlns:cc="http://creativecommons.org/ns#"
   xmlns:rdf="http://www.w3.org/1999/02/22-rdf-syntax-ns#"
   xmlns:svg="http://www.w3.org/2000/svg"
   xmlns="http://www.w3.org/2000/svg"
   xmlns:xlink="http://www.w3.org/1999/xlink"
   xmlns:sodipodi="http://sodipodi.sourceforge.net/DTD/sodipodi-0.dtd"
   xmlns:inkscape="http://www.inkscape.org/namespaces/inkscape"
   width="720"
   height="180"
   viewBox="0 0 190.5 47.625001"
   version="1.1"
   id="svg8"
   inkscape:version="1.0.2 (1.0.2+r75+1)"
   sodipodi:docname="Logo.svg">
  <defs
     id="defs2">
    <linearGradient
       inkscape:collect="always"
       id="linearGradient864">
      <stop
         style="stop-color:#e63f77;stop-opacity:1"
         offset="0"
         id="stop860" />
      <stop
         style="stop-color:#77bdfb;stop-opacity:1"
         offset="1"
         id="stop862" />
    </linearGradient>
    <linearGradient
       inkscape:collect="always"
       xlink:href="#linearGradient864"
       id="linearGradient866"
       x1="28.881828"
       y1="25.478577"
       x2="151.21872"
       y2="25.017467"
       gradientUnits="userSpaceOnUse" />
  </defs>
  <sodipodi:namedview
     id="base"
     pagecolor="#ffffff"
     bordercolor="#666666"
     borderopacity="1.0"
     inkscape:pageopacity="0.0"
     inkscape:pageshadow="2"
     inkscape:zoom="0.72307923"
     inkscape:cx="244.41957"
     inkscape:cy="127.66793"
     inkscape:document-units="px"
     inkscape:current-layer="layer1"
     inkscape:document-rotation="0"
     showgrid="false"
     inkscape:snap-global="false"
     inkscape:window-width="1352"
     inkscape:window-height="689"
     inkscape:window-x="7"
     inkscape:window-y="40"
     inkscape:window-maximized="1"
     units="px" />
  <metadata
     id="metadata5">
    <rdf:RDF>
      <cc:Work
         rdf:about="">
        <dc:format>image/svg+xml</dc:format>
        <dc:type
           rdf:resource="http://purl.org/dc/dcmitype/StillImage" />
        <dc:title></dc:title>
      </cc:Work>
    </rdf:RDF>
  </metadata>
  <g
     inkscape:label="Layer 1"
     inkscape:groupmode="layer"
     id="layer1">
    <g
       id="g858"
       transform="translate(7.7428742,0.10337955)"
       style="fill-opacity:1;fill:url(#linearGradient866)">
      <path
         id="path849"
         style="fill:url(#linearGradient866);fill-opacity:1;stroke-width:4.83141"
         inkscape:transform-center-x="-6.10781e-05"
         inkscape:transform-center-y="-1.3249343e-05"
         d="m 154.64734,1.8806134 -22.90252,6.0873916 -0.88874,2.974131 h 13.7001 c 0.28507,0 0.42613,0.153843 0.42613,0.462642 v 24.043444 c 0,0.308631 -0.14111,0.46264 -0.42613,0.46264 h -3.66982 c -0.28507,0 -0.42786,-0.153812 -0.42786,-0.46264 V 15.464189 h -8.83367 c -0.49864,0 -0.89076,-0.188813 -1.17575,-0.568733 l -0.55656,-0.721793 -4.73077,15.842868 18.37349,15.521097 4.92729,-3.255884 h -2.10797 c -0.11887,0 -0.22516,-0.04773 -0.32008,-0.142599 -0.0711,-0.09492 -0.10602,-0.20295 -0.10602,-0.321757 v -3.633304 c 0,-0.118812 0.0349,-0.212137 0.10602,-0.283489 0.0949,-0.09492 0.20126,-0.142599 0.32008,-0.142599 h 8.95195 l 0.72526,-0.480037 -5.54471,-7.214425 c -0.14236,-0.19016 -0.14236,-0.367819 0,-0.533953 l 5.91342,-7.657934 h -10.04592 c -0.11887,0 -0.22516,-0.04773 -0.32008,-0.142599 -0.0711,-0.09492 -0.10602,-0.20295 -0.10602,-0.321757 V 17.77572 c 0,-0.118812 0.0349,-0.226543 0.10602,-0.321757 0.0949,-0.09492 0.20126,-0.14263 0.32008,-0.14263 h 14.24799 c 0.28506,0 0.42784,0.153812 0.42784,0.46264 v 5.202112 c 0,0.308632 -0.0955,0.616546 -0.28508,0.925282 l -4.55859,5.91346 3.7603,4.876876 2.94978,-1.949711 -0.0572,-18.505662 z m 5.48038,11.9434586 h 0.45046 l 0.006,0.0038 c 0.009,0 0.0202,0.0044 0.0269,0.01581 0.006,0.01112 0.006,0.02221 -10e-4,0.0313 l -1.82445,2.375821 c -0.0302,0.03793 -0.0694,0.05745 -0.11652,0.05745 h -0.33972 c -0.0269,0 -0.0418,-0.01346 -0.0418,-0.04176 v -2.398431 c 0,-0.01112 0.003,-0.0212 0.014,-0.02793 0.006,-0.0091 0.0168,-0.01206 0.027,-0.01206 h 0.36524 c 0.009,0 0.0202,0.0038 0.0304,0.01206 0.006,0.007 0.009,0.01649 0.009,0.02793 V 15.5412 l 1.27663,-1.659247 c 0.0304,-0.03793 0.0711,-0.05746 0.11808,-0.05746 z m -3.79331,0.007 h 0.003 1.64183 c 0.014,0 0.0236,0.0064 0.0269,0.01751 0.006,0.0091 0.006,0.02021 -0.003,0.0313 l -0.26252,0.342638 c -0.0304,0.03793 -0.0694,0.05746 -0.11652,0.05746 h -0.87658 v 0.566999 h 0.88702 c 0.0269,0 0.0416,0.01488 0.0416,0.04345 v 0.361765 c 0,0.03063 -0.014,0.04525 -0.0416,0.04525 h -0.88702 v 0.565263 h 1.1201 c 0.009,0 0.0202,0.0038 0.0269,0.01206 0.009,0.007 0.014,0.01649 0.014,0.02793 v 0.365238 c 0,0.02827 -0.0169,0.04176 -0.0434,0.04176 h -1.5323 c -0.009,0 -0.0202,-0.0017 -0.0302,-0.0088 -0.006,-0.0091 -0.009,-0.02021 -0.009,-0.0313 V 13.87267 c 0,-0.01112 0.003,-0.0212 0.009,-0.02793 0.009,-0.0091 0.0168,-0.01378 0.0302,-0.01378 z m -2.4854,0.0038 h 0.79138 c 0.1703,0 0.32948,0.03198 0.47828,0.09565 0.14909,0.06395 0.27834,0.151556 0.38961,0.262623 0.11102,0.108805 0.19993,0.237177 0.26623,0.386111 0.0686,0.146515 0.10402,0.30338 0.10602,0.471341 0.003,0.175014 -0.0269,0.340295 -0.0955,0.493941 -0.0663,0.153718 -0.15718,0.287629 -0.27295,0.40351 -0.11573,0.113519 -0.25075,0.203386 -0.40702,0.269588 -0.15378,0.06617 -0.31906,0.09916 -0.4939,0.09916 h -0.76182 c -0.009,0 -0.0235,-0.0038 -0.0302,-0.0105 -0.006,-0.0091 -0.009,-0.01818 -0.009,-0.02961 v -2.401909 c 0,-0.01112 0.003,-0.0212 0.009,-0.02793 0.009,-0.0091 0.0168,-0.01206 0.0302,-0.01206 z m 0.41394,0.446995 v 1.582719 h 0.37917 c 0.10868,0 0.21002,-0.02088 0.30426,-0.06092 0.0969,-0.04265 0.18142,-0.09955 0.2521,-0.170436 0.0734,-0.07337 0.13028,-0.156005 0.17029,-0.250439 0.0428,-0.09693 0.0642,-0.200762 0.0642,-0.309574 0,-0.108805 -0.0202,-0.209916 -0.0642,-0.304357 -0.0401,-0.09693 -0.097,-0.181274 -0.17029,-0.252189 -0.071,-0.07337 -0.1552,-0.13029 -0.2521,-0.170437 -0.0946,-0.04265 -0.19555,-0.06439 -0.30426,-0.06439 z m -1.39835,1.554888 h 0.38609 c 0.0304,0 0.0454,0.01441 0.0454,0.04524 v 0.39133 c 0,0.03063 -0.014,0.04522 -0.0454,0.04522 h -0.38609 c -0.0304,0 -0.0469,-0.01441 -0.0469,-0.04522 V 15.882 c 0,-0.03063 0.0169,-0.04524 0.0469,-0.04524 z" />
      <text
         xml:space="preserve"
         style="font-style:normal;font-weight:normal;font-size:35.6198px;line-height:1.25;font-family:sans-serif;fill:url(#linearGradient866);fill-opacity:1;stroke:none;stroke-width:0.890497"
         x="10.514563"
         y="38.304893"
         id="text848"><tspan
           sodipodi:role="line"
           id="tspan846"
           x="10.514563"
           y="38.304893"
           style="font-style:normal;font-variant:normal;font-weight:normal;font-stretch:normal;font-family:VALORANT;-inkscape-font-specification:VALORANT;fill:url(#linearGradient866);fill-opacity:1;stroke-width:0.890497">CLSBX</tspan></text>
    </g>
  </g>
</svg>
