<?xml version="1.0" encoding="UTF-8" standalone="no"?>
<svg
   xmlns:dc="http://purl.org/dc/elements/1.1/"
   xmlns:cc="http://creativecommons.org/ns#"
   xmlns:rdf="http://www.w3.org/1999/02/22-rdf-syntax-ns#"
   xmlns:svg="http://www.w3.org/2000/svg"
   xmlns="http://www.w3.org/2000/svg"
   xmlns:xlink="http://www.w3.org/1999/xlink"
   xmlns:sodipodi="http://sodipodi.sourceforge.net/DTD/sodipodi-0.dtd"
   xmlns:inkscape="http://www.inkscape.org/namespaces/inkscape"
   width="500"
   height="100"
   viewBox="0 0 132.29166 26.458334"
   version="1.1"
   id="svg8"
   inkscape:version="1.0.2 (1.0.2+r75+1)"
   sodipodi:docname="Logo.svg">
  <defs
     id="defs2">
    <linearGradient
       inkscape:collect="always"
       id="linearGradient925">
      <stop
         style="stop-color:#00ffff;stop-opacity:1"
         offset="0"
         id="stop921" />
      <stop
         style="stop-color:#ff00ff;stop-opacity:1"
         offset="1"
         id="stop923" />
    </linearGradient>
    <inkscape:path-effect
       effect="offset"
       id="path-effect904"
       is_visible="true"
       lpeversion="1"
       linejoin_type="round"
       unit="px"
       offset="9"
       miter_limit="4"
       attempt_force_join="true"
       update_on_knot_move="true" />
    <linearGradient
       inkscape:collect="always"
       xlink:href="#linearGradient925"
       id="linearGradient927"
       x1="-2.4279103"
       y1="-79.184868"
       x2="3.5569453"
       y2="-74.454132"
       gradientUnits="userSpaceOnUse" />
    <linearGradient
       inkscape:collect="always"
       xlink:href="#linearGradient925"
       id="linearGradient929"
       gradientUnits="userSpaceOnUse"
       x1="-2.4279103"
       y1="-79.184868"
       x2="3.5569453"
       y2="-74.454132" />
    <linearGradient
       inkscape:collect="always"
       xlink:href="#linearGradient925"
       id="linearGradient931"
       gradientUnits="userSpaceOnUse"
       x1="-2.4279103"
       y1="-79.184868"
       x2="3.5569453"
       y2="-74.454132" />
  </defs>
  <sodipodi:namedview
     id="base"
     pagecolor="#000000"
     bordercolor="#666666"
     borderopacity="1.0"
     inkscape:pageopacity="0"
     inkscape:pageshadow="2"
     inkscape:zoom="1.4"
     inkscape:cx="228.4958"
     inkscape:cy="95.169108"
     inkscape:document-units="px"
     inkscape:current-layer="layer1"
     inkscape:document-rotation="0"
     showgrid="false"
     units="px"
     inkscape:window-width="1352"
     inkscape:window-height="689"
     inkscape:window-x="7"
     inkscape:window-y="40"
     inkscape:window-maximized="1" />
  <metadata
     id="metadata5">
    <rdf:RDF>
      <cc:Work
         rdf:about="">
        <dc:format>image/svg+xml</dc:format>
        <dc:type
           rdf:resource="http://purl.org/dc/dcmitype/StillImage" />
        <dc:title></dc:title>
      </cc:Work>
    </rdf:RDF>
  </metadata>
  <g
     inkscape:label="Layer 1"
     inkscape:groupmode="layer"
     id="layer1">
    <g
       id="g891"
       style="opacity:0.998;fill:#333333"
       inkscape:path-effect="#path-effect904"
       inkscape:export-xdpi="96"
       inkscape:export-ydpi="96"
       transform="matrix(2.6893909,0,0,2.6893909,114.19768,219.65366)">
      <g
         aria-label="CLSBX"
         id="text883"
         style="font-size:10.5833px;line-height:1.25;font-family:Abel;-inkscape-font-specification:Abel;letter-spacing:0px;word-spacing:0px;fill:#333333;stroke-width:0.264583">
        <path
           d="m -36.826172,-81.507812 c -0.656217,-0.0086 -1.270889,0.108882 -1.857422,0.357421 -0.567438,0.23347 -1.071556,0.563677 -1.507812,1 -0.417867,0.426572 -0.746568,0.921474 -0.992188,1.480469 a 0.88542352,0.88542352 0 0 0 -0.0039,0.0098 c -0.248074,0.584744 -0.365234,1.207001 -0.365234,1.859375 0,0.649337 0.11363,1.26794 0.349609,1.853515 0.230853,0.57286 0.5532,1.082338 0.980469,1.527344 0.42147,0.430251 0.913668,0.76602 1.46875,1.013672 a 0.88542352,0.88542352 0 0 0 0.01563,0.0059 c 0.577669,0.245073 1.190903,0.364444 1.832031,0.365235 0.708053,0.008 1.368441,-0.121108 1.992188,-0.40625 a 0.88542352,0.88542352 0 0 0 0.0098,-0.0039 c 0.602473,-0.284023 1.120264,-0.667844 1.5625,-1.16211 a 0.88542352,0.88542352 0 0 0 0.04883,-0.05859 c 0.166579,-0.222084 0.189347,-0.446368 0.160157,-0.703125 -0.01404,-0.324873 -0.06605,-0.498746 -0.359376,-0.71875 l -0.794921,-0.675781 0.05469,0.04883 c -0.227142,-0.227141 -0.462917,-0.288219 -0.80664,-0.246094 -0.31519,0.01592 -0.49209,0.06434 -0.708985,0.353516 l 0.03125,-0.03906 c -0.146064,0.17345 -0.324588,0.314637 -0.523437,0.414062 -0.187183,0.09359 -0.391426,0.142927 -0.607422,0.148438 -0.21635,-0.0013 -0.410696,-0.04209 -0.587891,-0.117188 -0.189772,-0.08737 -0.358451,-0.205469 -0.503906,-0.355469 -0.14724,-0.151842 -0.26798,-0.332652 -0.361328,-0.548828 -0.0829,-0.19198 -0.128907,-0.409121 -0.128907,-0.642578 0,-0.241642 0.0456,-0.461288 0.126954,-0.660156 0.08825,-0.215729 0.20189,-0.395988 0.341796,-0.544922 a 0.88542352,0.88542352 0 0 0 0.0098,-0.0098 c 0.136338,-0.149531 0.296354,-0.264551 0.484375,-0.349609 a 0.88542352,0.88542352 0 0 0 0.01563,-0.0078 c 0.179852,-0.08564 0.376509,-0.132429 0.578125,-0.136719 0.223725,-0.0043 0.426719,0.04436 0.607422,0.136719 a 0.88542352,0.88542352 0 0 0 0.01367,0.0059 c 0.206448,0.10093 0.391022,0.242704 0.544922,0.419922 l -0.04102,-0.04883 c 0.169348,0.225834 0.380657,0.342558 0.621094,0.390625 a 0.88542352,0.88542352 0 0 0 0.173828,0.01563 c 0.246158,0 0.428032,-0.05929 0.625,-0.207032 a 0.88542352,0.88542352 0 0 0 0.04102,-0.0332 l 0.794921,-0.675781 c 0.26487,-0.198671 0.340657,-0.388889 0.359376,-0.716797 0.02919,-0.256757 0.0064,-0.48104 -0.160157,-0.703125 a 0.88542352,0.88542352 0 0 0 -0.04883,-0.05859 c -0.43425,-0.486359 -0.952433,-0.868722 -1.542969,-1.142578 -0.60589,-0.285127 -1.249614,-0.425056 -1.941406,-0.433593 z m 3.69336,2.33789 c -0.004,0.0356 0.02897,0.0602 0.02148,0.09766 l 0.01563,-0.173828 c 0,0.03875 -0.03513,0.04152 -0.03711,0.07617 z m -1.90625,3.208984 c 0.03823,-0.0019 0.04209,-0.04297 0.08594,-0.04297 l -0.173828,0.01563 c 0.04103,-0.0082 0.05038,0.03194 0.08789,0.02734 z m 1.90625,1.591797 c 0.0015,0.03425 0.03711,0.0375 0.03711,0.07617 l -0.01563,-0.173828 c 0.0075,0.03746 -0.02553,0.06206 -0.02148,0.09766 z m -3.773438,2.333985 c -0.0015,-1.7e-5 -0.0024,0.002 -0.0039,0.002 h 0.0098 c -0.0021,0 -0.0038,-0.002 -0.0059,-0.002 z"
           style="font-style:normal;font-variant:normal;font-weight:normal;font-stretch:normal;font-family:VALORANT;-inkscape-font-specification:VALORANT;fill:#333333;stroke-width:0.264583"
           id="path893"
           inkscape:original-d="m -40.668897,-76.801731 q 0,-0.814914 0.296332,-1.513412 0.306916,-0.698498 0.814915,-1.217079 0.518581,-0.518582 1.217079,-0.804331 0.698498,-0.296333 1.502829,-0.285749 0.857247,0.01058 1.576911,0.349249 0.730248,0.338665 1.259413,0.93133 0.03175,0.04233 0.02117,0.09525 0,0.05292 -0.04233,0.08467 l -0.83608,0.709081 q -0.04233,0.03175 -0.09525,0.03175 -0.05292,-0.01058 -0.08467,-0.05292 -0.349248,-0.402165 -0.825497,-0.634998 -0.476248,-0.243415 -1.02658,-0.232832 -0.497415,0.01058 -0.941914,0.222249 -0.444498,0.201083 -0.772581,0.560915 -0.328082,0.349249 -0.518581,0.814914 -0.1905,0.465665 -0.1905,0.99483 0,0.529165 0.201083,0.99483 0.201083,0.465666 0.539748,0.814915 0.338666,0.349248 0.783165,0.550331 0.444498,0.1905 0.952497,0.1905 0.529165,-0.01058 0.99483,-0.243416 0.465665,-0.232833 0.80433,-0.634998 0.03175,-0.04233 0.08467,-0.04233 0.05292,-0.01058 0.09525,0.03175 l 0.83608,0.709081 q 0.04233,0.03175 0.04233,0.08467 0.01058,0.05292 -0.02117,0.09525 -0.539748,0.603248 -1.280579,0.952496 -0.740831,0.338666 -1.619245,0.328083 -0.793748,0 -1.492246,-0.296333 -0.687914,-0.306915 -1.195912,-0.825497 -0.507999,-0.529165 -0.793748,-1.238246 -0.285749,-0.709081 -0.285749,-1.523995 z" />
        <path
           d="m -32.660156,-81.359375 c -0.343723,0 -0.54918,0.129258 -0.720703,0.300781 -0.21222,0.21222 -0.291016,0.423934 -0.291016,0.710938 v 7.154297 c 0,0.249244 0.0844,0.460851 0.208984,0.626953 a 0.88542352,0.88542352 0 0 0 0.177735,0.177734 c 0.196948,0.147719 0.378821,0.207031 0.625,0.207031 h 3.144531 c 0.437221,0 0.766432,-0.175421 1.025391,-0.49414 a 0.88542352,0.88542352 0 0 0 0.01367,-0.01758 l 0.792968,-1.027344 a 0.88542352,0.88542352 0 0 0 0.0078,-0.0098 c 0.288517,-0.384653 0.214059,-0.686469 0.04687,-1 -0.184928,-0.376861 -0.462357,-0.564453 -0.839844,-0.564453 h -2.078125 v -5.052734 c 0,-0.616578 -0.489483,-1.011719 -1.023437,-1.011719 z m 5.03125,6.628906 c 0.01465,0.02986 0.05324,0.01202 0.06641,0.04492 L -27.625,-74.8125 c 0.01551,0.02586 -0.01762,0.05631 -0.0039,0.08203 z"
           style="font-style:normal;font-variant:normal;font-weight:normal;font-stretch:normal;font-family:VALORANT;-inkscape-font-specification:VALORANT;fill:#333333;stroke-width:0.264583"
           id="path895"
           inkscape:original-d="m -32.659489,-80.474136 h 1.09008 q 0.137583,0 0.137583,0.126999 v 5.937232 h 2.963324 q 0.0635,0 0.08467,0.05292 0.03175,0.05292 0,0.09525 l -0.793747,1.02658 q -0.137583,0.169333 -0.338666,0.169333 h -3.14324 q -0.05292,0 -0.09525,-0.03175 -0.03175,-0.04233 -0.03175,-0.09525 v -7.154311 q 0,-0.05292 0.03175,-0.08467 0.04233,-0.04233 0.09525,-0.04233 z" />
        <path
           d="m -25.164062,-81.507812 c -0.455868,0 -0.895314,0.07622 -1.324219,0.238281 -0.401401,0.155086 -0.76218,0.367809 -1.082031,0.640625 a 0.88542352,0.88542352 0 0 0 -0.0098,0.0078 c -0.321096,0.282175 -0.576474,0.617791 -0.767578,1 a 0.88542352,0.88542352 0 0 0 -0.0078,0.01563 c -0.194947,0.410419 -0.287111,0.842232 -0.287109,1.300781 0,0.772119 0.246128,1.459332 0.77539,2.009766 0.234715,0.244102 0.590238,0.304976 0.882813,0.462891 -0.345427,0.04109 -0.570395,0.152469 -0.728516,0.416015 l 0.06055,-0.08984 -0.667968,0.859375 c -0.283622,0.364688 -0.331642,0.918169 0.06836,1.328125 0.142435,0.156866 0.306293,0.310699 0.488281,0.453125 a 0.88542352,0.88542352 0 0 0 0.01953,0.01563 c 0.210341,0.155469 0.440835,0.291706 0.689453,0.416015 a 0.88542352,0.88542352 0 0 0 0.03125,0.01563 c 0.273333,0.123441 0.568677,0.222433 0.882813,0.298828 0.343971,0.08147 0.698419,0.117188 1.060547,0.117188 0.515708,0 1.007085,-0.07498 1.458984,-0.248047 a 0.88542352,0.88542352 0 0 0 0.01563,-0.0059 c 0.421122,-0.170241 0.792298,-0.400339 1.109375,-0.705079 l 0.002,-0.002 c 0.314619,-0.296032 0.561726,-0.643386 0.726563,-1.042968 0.16213,-0.376367 0.25,-0.769358 0.25,-1.175782 0,-0.370532 -0.06658,-0.726965 -0.197266,-1.058593 -0.131732,-0.344532 -0.324779,-0.650589 -0.572265,-0.919922 -0.245235,-0.274504 -0.544781,-0.497343 -0.884766,-0.673828 -0.06754,-0.03714 -0.150454,-0.04567 -0.220703,-0.07813 0.157802,-0.04416 0.327317,-0.05388 0.46289,-0.189453 a 0.88542352,0.88542352 0 0 0 0.01172,-0.01367 l 0.730469,-0.761719 -0.05469,0.05273 c 0.452354,-0.395842 0.446369,-0.965694 0.125,-1.378906 a 0.88542352,0.88542352 0 0 0 -0.0098,-0.01172 c -0.308443,-0.382895 -0.743434,-0.681161 -1.228516,-0.908203 -0.544516,-0.265543 -1.153595,-0.384765 -1.808593,-0.384765 z m 1.808593,0.384765 c 0.0029,0.0014 0.0068,5.15e-4 0.0098,0.002 l -0.01758,-0.0078 c 0.0031,0.0014 0.0047,0.0044 0.0078,0.0059 z m 0.183594,3.289063 c 0.0041,0.0023 0.0096,0.0016 0.01367,0.0039 l -0.02539,-0.01367 c 0.0047,0.0024 0.0071,0.0073 0.01172,0.0098 z m 0.884766,0.673828 c 0.0015,0.0017 0.0043,0.0022 0.0059,0.0039 l -0.01172,-0.01367 c 0.0026,0.0028 0.0033,0.0069 0.0059,0.0098 z m 0.519531,3.154297 c -0.0019,0.0043 -7.5e-5,0.0094 -0.002,0.01367 l 0.0059,-0.01758 c -7.02e-4,0.0017 -0.0032,0.0022 -0.0039,0.0039 z m -6.484375,0.6875 c -0.0095,-0.01042 -0.02397,-0.01883 -0.0332,-0.0293 l 0.03711,0.04102 c -0.0034,-0.0034 -5.92e-4,-0.0083 -0.0039,-0.01172 z m 3.097656,-5.138672 c 0.07755,0 0.149883,0.01013 0.21875,0.02734 0.07706,0.01927 0.141229,0.04467 0.193359,0.07227 a 0.88542352,0.88542352 0 0 0 0.05469,0.02539 c 0.03391,0.01507 0.04681,0.02554 0.07031,0.03906 l -0.708984,-0.136719 c 0.03386,-0.0129 0.09052,-0.02734 0.171875,-0.02734 z m -1.714844,2.558593 c -0.03704,0 -0.03274,0.03496 -0.06641,0.03711 -0.03031,0.0026 -0.04902,-0.03056 -0.08008,-0.02539 z m 1.212891,0.65625 0.705078,0.144532 a 0.88542352,0.88542352 0 0 0 0.01172,0.002 c 0.01615,0.0031 0.01291,0.0042 0.02734,0.0078 -0.05083,0.01235 -0.0394,0.02539 -0.158203,0.02539 -0.101045,0 -0.187722,-0.01518 -0.259766,-0.03711 -0.109999,-0.03348 -0.205494,-0.0723 -0.28711,-0.117188 -0.01492,-0.0082 -0.02468,-0.01713 -0.03906,-0.02539 z"
           style="font-style:normal;font-variant:normal;font-weight:normal;font-stretch:normal;font-family:VALORANT;-inkscape-font-specification:VALORANT;fill:#333333;stroke-width:0.264583"
           id="path897"
           inkscape:original-d="m -27.757933,-78.30456 q 0,-0.497415 0.201082,-0.920747 0.211666,-0.423332 0.560915,-0.730247 0.359832,-0.306916 0.825498,-0.486832 0.476248,-0.179916 1.005413,-0.179916 0.825497,0 1.428746,0.296332 0.613831,0.285749 0.920747,0.666748 0.07408,0.09525 -0.01058,0.169333 l -0.730247,0.761997 q -0.04233,0.04233 -0.105833,0.04233 -0.05292,0 -0.09525,-0.05292 -0.09525,-0.105833 -0.243416,-0.211666 -0.137583,-0.105833 -0.328082,-0.190499 -0.179916,-0.09525 -0.391582,-0.148167 -0.211666,-0.05292 -0.433916,-0.05292 -0.264582,0 -0.486831,0.08467 -0.211666,0.07408 -0.359833,0.201083 -0.148166,0.127 -0.232832,0.296332 -0.08467,0.169333 -0.08467,0.359833 0,0.306915 0.201083,0.529165 0.201083,0.222249 0.603248,0.306915 l 1.037164,0.201083 q 0.507998,0.09525 0.888997,0.306916 0.391582,0.201082 0.645581,0.486831 0.264582,0.285749 0.402165,0.645582 0.137583,0.349249 0.137583,0.740831 0,0.423332 -0.179916,0.83608 -0.169333,0.412749 -0.518582,0.740831 -0.338665,0.328083 -0.83608,0.529165 -0.497415,0.1905 -1.142997,0.1905 -0.455081,0 -0.857247,-0.09525 -0.391582,-0.09525 -0.719664,-0.243416 -0.317499,-0.158749 -0.560915,-0.338665 -0.243416,-0.1905 -0.402165,-0.370416 -0.07408,-0.07408 0,-0.169333 l 0.666747,-0.857247 q 0.03175,-0.05292 0.08467,-0.05292 0.0635,-0.01058 0.105833,0.03175 0.148166,0.137583 0.328082,0.285749 0.179916,0.137583 0.391582,0.254 0.211666,0.116416 0.455082,0.190499 0.243416,0.07408 0.518582,0.07408 0.582081,0 0.888997,-0.253999 0.306916,-0.253999 0.306916,-0.656165 0,-0.317499 -0.232833,-0.550331 -0.222249,-0.243416 -0.666748,-0.328083 l -1.037163,-0.211666 q -0.888997,-0.179916 -1.418162,-0.730247 -0.529165,-0.550332 -0.529165,-1.396996 z" />
        <path
           d="m -21.1875,-81.359375 c -0.312878,0 -0.549215,0.12734 -0.722656,0.300781 -0.279314,0.279314 -0.289063,0.422604 -0.289063,0.710938 v 7.154297 c 0,0.22507 0.05871,0.429212 0.207031,0.626953 a 0.88542352,0.88542352 0 0 0 0.177735,0.177734 c 0.197723,0.1483 0.401864,0.207031 0.626953,0.207031 h 5.587891 c 0.563749,0 1.011718,-0.447969 1.011718,-1.011718 v -1.554688 c 0,-0.283912 -0.07252,-0.540396 -0.251953,-0.787109 a 0.88542352,0.88542352 0 0 0 -0.01563,-0.01953 l -0.9375,-1.214843 0.9375,-1.216797 a 0.88542352,0.88542352 0 0 0 0.01563,-0.01953 c 0.174765,-0.240288 0.251953,-0.501245 0.251953,-0.785157 v -1.55664 c 0,-0.56375 -0.447969,-1.011719 -1.011718,-1.011719 z"
           style="font-style:normal;font-variant:normal;font-weight:normal;font-stretch:normal;font-family:VALORANT;-inkscape-font-specification:VALORANT;fill:#333333;stroke-width:0.264583"
           id="path899"
           inkscape:original-d="m -21.187356,-80.474136 h 5.587982 q 0.126999,0 0.126999,0.126999 v 1.555745 q 0,0.148167 -0.08467,0.264583 l -1.354662,1.756828 1.354662,1.756827 q 0.08467,0.116417 0.08467,0.264583 v 1.555745 q 0,0.127 -0.126999,0.127 h -5.587982 q -0.05292,0 -0.09525,-0.03175 -0.03175,-0.04233 -0.03175,-0.09525 v -7.154311 q 0,-0.05292 0.03175,-0.08467 0.04233,-0.04233 0.09525,-0.04233 z m 4.328569,6.064231 -1.746244,-2.27541 q -0.05292,-0.08467 0,-0.158749 l 1.746244,-2.285993 h -3.100907 v 4.720152 z" />
        <path
           d="m -14.558594,-81.380859 c -0.400337,0 -0.674072,0.196343 -0.845703,0.482421 -0.248905,0.414861 -0.189157,0.844047 0.144531,1.177735 l -0.07617,-0.08789 2.316407,3.017578 -2.304688,3.003907 c -0.25068,0.313338 -0.344416,0.672697 -0.08008,1.113281 a 0.88542352,0.88542352 0 0 0 0.05078,0.07617 c 0.260858,0.347793 0.438526,0.394531 0.794922,0.394531 h 1.34375 c 0.429118,0 0.766574,-0.161176 1.03711,-0.494141 a 0.88542352,0.88542352 0 0 0 0.01367,-0.01758 l 1.138671,-1.478515 1.1289066,1.474609 a 0.88542352,0.88542352 0 0 0 0.015625,0.02148 c 0.270535,0.332965 0.6079911,0.494141 1.0371094,0.494141 H -7.5 c 0.2979697,0 0.5954779,-0.05908 0.8417969,-0.507813 0.2014466,-0.368649 0.1647441,-0.775004 -0.076172,-1.076171 l -2.3046875,-3.003907 2.3164063,-3.017578 -0.076172,0.08789 c 0.3318129,-0.33179 0.3167301,-0.735031 0.1328125,-1.099609 C -6.851276,-81.191324 -7.1251229,-81.380859 -7.5,-81.380859 h -1.34375 c -0.4393303,0 -0.7705142,0.167975 -1.0371094,0.496093 a 0.88542352,0.88542352 0 0 0 -0.015625,0.02148 l -1.1289066,1.474609 -1.138671,-1.478516 a 0.88542352,0.88542352 0 0 0 -0.01367,-0.01758 c -0.266596,-0.328119 -0.59778,-0.496093 -1.03711,-0.496093 z m 7.8925784,0.560547 c 0.016079,0.0322 0.057947,0.01303 0.072266,0.04883 l -0.0625,-0.126954 c 0.015286,0.02548 -0.022839,0.05221 -0.00977,0.07813 z m 0.00781,8.109374 c -0.00694,0.0127 0.00951,0.02451 0.00195,0.03711 l 0.03125,-0.05859 c -0.00972,0.01944 -0.023299,0.0034 -0.033203,0.02148 z"
           style="font-style:normal;font-variant:normal;font-weight:normal;font-stretch:normal;font-family:VALORANT;-inkscape-font-specification:VALORANT;fill:#333333;stroke-width:0.264583"
           id="path901"
           inkscape:original-d="m -14.632987,-73.235159 2.730491,-3.555989 -2.730491,-3.555989 q -0.04233,-0.04233 -0.01058,-0.09525 0.03175,-0.05292 0.08467,-0.05292 h 1.344079 q 0.211666,0 0.349249,0.169333 l 1.841494,2.391826 1.8309106,-2.391826 q 0.1375829,-0.169333 0.3492488,-0.169333 h 1.3440791 q 0.0635,0 0.084666,0.05292 0.03175,0.05292 -0.010583,0.09525 l -2.7304915,3.555989 2.7304915,3.555989 q 0.042333,0.05292 0.010583,0.105833 -0.021167,0.04233 -0.084666,0.04233 h -1.3440791 q -0.2116659,0 -0.3492488,-0.169333 l -1.8309106,-2.391826 -1.841494,2.391826 q -0.137583,0.169333 -0.349249,0.169333 h -1.344079 q -0.05292,0 -0.08467,-0.04233 -0.03175,-0.05292 0.01058,-0.105833 z" />
      </g>
      <g
         aria-label="73"
         id="g889"
         style="font-size:10.5833px;line-height:1.25;font-family:Abel;-inkscape-font-specification:Abel;letter-spacing:0px;word-spacing:0px;fill:#333333;fill-opacity:1;stroke-width:0.264583">
        <path
           d="m -6.1113281,-81.414062 c -0.4733534,0 -0.6605675,0.17709 -0.84375,0.482421 -0.2271141,0.378493 -0.1710888,0.801742 0.078125,1.113282 l 0.765625,0.996093 c 0.2740767,0.365434 0.6361296,0.521485 1.0585937,0.521485 H -3.3125 v 5.052734 c 0,0.533947 0.3951435,1.023438 1.0117188,1.023438 h 1.0898437 c 0.61657633,0 1.01171875,-0.48949 1.01171875,-1.023438 v -7.142578 c 0,-0.533948 -0.39514242,-1.023437 -1.01171875,-1.023437 z"
           style="font-style:normal;font-variant:normal;font-weight:normal;font-stretch:normal;font-family:VALORANT;-inkscape-font-specification:VALORANT;fill:#333333;fill-opacity:1;stroke-width:0.264583"
           id="path885"
           inkscape:original-d="m -6.1108987,-80.528946 h 4.9000678 q 0.1269995,0 0.1269995,0.137583 v 7.143727 q 0,0.137583 -0.1269995,0.137583 h -1.0900799 q -0.1269996,0 -0.1269996,-0.137583 v -5.937231 h -2.6246583 q -0.2222493,0 -0.3492489,-0.169332 l -0.7831642,-1.015997 q -0.042333,-0.05292 -0.010583,-0.105833 0.03175,-0.05292 0.084666,-0.05292 z" />
        <path
           d="m 0.57226562,-81.414062 c -0.31291324,0 -0.54923318,0.127371 -0.72265624,0.300781 a 0.88542352,0.88542352 0 0 0 -0.0820313,0.0957 c -0.14831147,0.197734 -0.20703124,0.401875 -0.20703124,0.626953 v 1.078125 c 0,0.225078 0.0587198,0.429219 0.20703124,0.626953 a 0.88542352,0.88542352 0 0 0 0.0820313,0.0957 c 0.17342306,0.17341 0.409743,0.300782 0.72265624,0.300782 H 1.7558594 l -0.65625,0.849609 0.029297,-0.03516 c -0.34426237,0.401624 -0.31601654,0.893731 -0.037109,1.265625 a 0.88542352,0.88542352 0 0 0 0.00781,0.0078 l 0.6621094,0.861328 H 0.57226562 c -0.31291324,0 -0.54921843,0.127357 -0.72265624,0.300782 -0.22449093,0.224484 -0.2890625,0.498357 -0.2890625,0.71289 v 1.078125 c 0,0.225078 0.0587198,0.42922 0.20703124,0.626953 a 0.88542352,0.88542352 0 0 0 0.0820313,0.0957 c 0.17342306,0.17341 0.409743,0.300782 0.72265624,0.300782 H 4.8066406 c 0.6165758,0 1.0117188,-0.48949 1.0117188,-1.023438 v -1.544922 c 0,-0.297058 -0.085599,-0.553732 -0.2539063,-0.785156 a 0.88542352,0.88542352 0 0 0 -0.015625,-0.01953 l -0.9375,-1.216797 0.9375,-1.214844 a 0.88542352,0.88542352 0 0 0 0.052734,-0.07617 c 0.1247813,-0.202773 0.2167969,-0.452773 0.2167969,-0.740234 v -1.544922 c 0,-0.533948 -0.395143,-1.023437 -1.0117188,-1.023437 z"
           style="font-style:normal;font-variant:normal;font-weight:normal;font-stretch:normal;font-family:VALORANT;-inkscape-font-specification:VALORANT;fill:#333333;fill-opacity:1;stroke-width:0.264583"
           id="path887"
           inkscape:original-d="m 0.44545532,-73.247636 v -1.079496 q 0,-0.05292 0.0317499,-0.08467 0.0423332,-0.04233 0.0952497,-0.04233 H 3.5569454 l -1.7568277,-2.285992 q -0.0635,-0.08467 0,-0.15875 l 1.7568277,-2.275409 H 0.57245492 q -0.0529165,0 -0.0952497,-0.04233 -0.0317499,-0.04233 -0.0317499,-0.09525 v -1.079497 q 0,-0.05292 0.0317499,-0.09525 0.0423332,-0.04233 0.0952497,-0.04233 H 4.8057748 q 0.1269996,0 0.1269996,0.137583 v 1.545162 q 0,0.137583 -0.084666,0.275166 l -1.3546624,1.756827 1.3546624,1.756828 q 0.084666,0.116416 0.084666,0.264583 v 1.545161 q 0,0.137583 -0.1269996,0.137583 H 0.57245492 q -0.0529165,0 -0.0952497,-0.04233 -0.0317499,-0.04233 -0.0317499,-0.09525 z" />
      </g>
    </g>
    <g
       aria-label="CLSBX"
       id="text835"
       style="font-size:28.4627px;line-height:1.25;font-family:Abel;-inkscape-font-specification:Abel;letter-spacing:0px;word-spacing:0px;fill:#cccccc;stroke-width:0.711566">
      <g
         id="g905"
         style="fill:#e6e6e6">
        <path
           style="color:#000000;font-style:normal;font-variant:normal;font-weight:normal;font-stretch:normal;font-size:medium;line-height:1.25;font-family:VALORANT;-inkscape-font-specification:VALORANT;font-variant-ligatures:normal;font-variant-position:normal;font-variant-caps:normal;font-variant-numeric:normal;font-variant-alternates:normal;font-variant-east-asian:normal;font-feature-settings:normal;font-variation-settings:normal;text-indent:0;text-align:start;text-decoration:none;text-decoration-line:none;text-decoration-style:solid;text-decoration-color:#000000;letter-spacing:0px;word-spacing:0px;text-transform:none;writing-mode:lr-tb;direction:ltr;text-orientation:mixed;dominant-baseline:auto;baseline-shift:baseline;text-anchor:start;white-space:normal;shape-padding:0;shape-margin:0;inline-size:0;clip-rule:nonzero;display:inline;overflow:visible;visibility:visible;isolation:auto;mix-blend-mode:normal;color-interpolation:sRGB;color-interpolation-filters:linearRGB;solid-color:#000000;solid-opacity:1;vector-effect:none;fill:#e6e6e6;fill-opacity:1;fill-rule:nonzero;stroke-width:0.711566;stroke-linecap:butt;stroke-linejoin:miter;stroke-miterlimit:4;stroke-dasharray:none;stroke-dashoffset:0;stroke-opacity:1;color-rendering:auto;image-rendering:auto;shape-rendering:auto;text-rendering:auto;enable-background:accumulate;stop-color:#000000;stop-opacity:1;stroke:none;opacity:1"
           d="m 4.823115,13.103756 c 0,-1.461085 0.2656519,-2.817807 0.7969556,-4.0701664 C 6.1703495,7.7812308 6.9008921,6.6901606 7.8116985,5.7603791 8.74148,4.8305976 9.8325502,4.1095425 11.084909,3.5972139 c 1.252359,-0.5313037 2.599593,-0.787468 4.041703,-0.7684929 1.536986,0.018975 2.950634,0.332065 4.240943,0.9392691 1.309284,0.6072043 2.438304,1.4421101 3.387061,2.5047176 0.05693,0.075901 0.0759,0.1612886 0.05692,0.2561643 0,0.094876 -0.03795,0.1707762 -0.11385,0.2277016 l -2.248554,1.9070009 c -0.0759,0.056925 -0.161289,0.085388 -0.256164,0.085388 C 20.098092,8.7299872 20.022191,8.6825493 19.965266,8.606649 19.339087,7.8855939 18.599057,7.3163399 17.745176,6.898887 16.891295,6.4624589 15.971001,6.2537325 14.984294,6.2727076 14.092463,6.2916829 13.248069,6.4909218 12.451114,6.8704243 11.654158,7.2309518 10.961566,7.7337929 10.373337,8.3789474 9.7851075,9.0051268 9.3202166,9.7356693 8.9786642,10.570575 c -0.3415524,0.834906 -0.5123286,1.726737 -0.5123286,2.675494 0,0.948757 0.1802638,1.840588 0.5407913,2.675494 0.3605275,0.834906 0.8443936,1.565449 1.4515981,2.191628 0.607204,0.626179 1.309284,1.119533 2.106239,1.48006 0.796956,0.341553 1.650837,0.512329 2.561643,0.512329 0.948757,-0.01897 1.840588,-0.237187 2.675494,-0.654642 0.834906,-0.417453 1.555961,-0.986707 2.163165,-1.707762 0.05693,-0.0759 0.132827,-0.113851 0.227702,-0.113851 0.09487,-0.01897 0.180263,0.0095 0.256164,0.08539 l 2.248554,1.907001 c 0.0759,0.05693 0.11385,0.132827 0.11385,0.227702 0.01897,0.09487 0,0.180263 -0.05692,0.256164 -0.967732,1.081583 -2.115728,1.935464 -3.443987,2.561643 -1.328259,0.607204 -2.779857,0.901319 -4.354793,0.882344 -1.423135,0 -2.760881,-0.265652 -4.01324,-0.796956 C 9.709212,22.202333 8.6371168,21.462302 7.7263104,20.53252 6.815504,19.583763 6.1039365,18.473718 5.5916079,17.202384 5.0792793,15.931051 4.823115,14.564841 4.823115,13.103756 Z"
           id="path868" />
        <path
           style="color:#000000;font-style:normal;font-variant:normal;font-weight:normal;font-stretch:normal;font-size:medium;line-height:1.25;font-family:VALORANT;-inkscape-font-specification:VALORANT;font-variant-ligatures:normal;font-variant-position:normal;font-variant-caps:normal;font-variant-numeric:normal;font-variant-alternates:normal;font-variant-east-asian:normal;font-feature-settings:normal;font-variation-settings:normal;text-indent:0;text-align:start;text-decoration:none;text-decoration-line:none;text-decoration-style:solid;text-decoration-color:#000000;letter-spacing:0px;word-spacing:0px;text-transform:none;writing-mode:lr-tb;direction:ltr;text-orientation:mixed;dominant-baseline:auto;baseline-shift:baseline;text-anchor:start;white-space:normal;shape-padding:0;shape-margin:0;inline-size:0;clip-rule:nonzero;display:inline;overflow:visible;visibility:visible;isolation:auto;mix-blend-mode:normal;color-interpolation:sRGB;color-interpolation-filters:linearRGB;solid-color:#000000;solid-opacity:1;vector-effect:none;fill:#e6e6e6;fill-opacity:1;fill-rule:nonzero;stroke-width:0.711566;stroke-linecap:butt;stroke-linejoin:miter;stroke-miterlimit:4;stroke-dasharray:none;stroke-dashoffset:0;stroke-opacity:1;color-rendering:auto;image-rendering:auto;shape-rendering:auto;text-rendering:auto;enable-background:accumulate;stop-color:#000000;stop-opacity:1;stroke:none;opacity:1"
           d="m 26.363597,3.2271988 h 2.931658 c 0.246677,0 0.370015,0.1138508 0.370015,0.3415524 V 19.536326 h 7.969556 c 0.113851,0 0.189751,0.04744 0.227702,0.142313 0.05693,0.09488 0.05693,0.180264 0,0.256165 l -2.134703,2.760882 c -0.246677,0.303602 -0.550279,0.455403 -0.910806,0.455403 h -8.453422 c -0.09488,0 -0.180264,-0.02846 -0.256165,-0.08539 -0.05693,-0.0759 -0.08539,-0.161289 -0.08539,-0.256165 V 3.5687512 c 0,-0.094876 0.02846,-0.1707762 0.08539,-0.2277016 0.0759,-0.0759 0.161289,-0.1138508 0.256165,-0.1138508 z"
           id="path870" />
        <path
           style="color:#000000;font-style:normal;font-variant:normal;font-weight:normal;font-stretch:normal;font-size:medium;line-height:1.25;font-family:VALORANT;-inkscape-font-specification:VALORANT;font-variant-ligatures:normal;font-variant-position:normal;font-variant-caps:normal;font-variant-numeric:normal;font-variant-alternates:normal;font-variant-east-asian:normal;font-feature-settings:normal;font-variation-settings:normal;text-indent:0;text-align:start;text-decoration:none;text-decoration-line:none;text-decoration-style:solid;text-decoration-color:#000000;letter-spacing:0px;word-spacing:0px;text-transform:none;writing-mode:lr-tb;direction:ltr;text-orientation:mixed;dominant-baseline:auto;baseline-shift:baseline;text-anchor:start;white-space:normal;shape-padding:0;shape-margin:0;inline-size:0;clip-rule:nonzero;display:inline;overflow:visible;visibility:visible;isolation:auto;mix-blend-mode:normal;color-interpolation:sRGB;color-interpolation-filters:linearRGB;solid-color:#000000;solid-opacity:1;vector-effect:none;fill:#e6e6e6;fill-opacity:1;fill-rule:nonzero;stroke-width:0.711566;stroke-linecap:butt;stroke-linejoin:miter;stroke-miterlimit:4;stroke-dasharray:none;stroke-dashoffset:0;stroke-opacity:1;color-rendering:auto;image-rendering:auto;shape-rendering:auto;text-rendering:auto;enable-background:accumulate;stop-color:#000000;stop-opacity:1;stroke:none;opacity:1"
           d="m 39.545828,9.0620523 c 0,-0.8918313 0.180264,-1.7172496 0.540792,-2.4762549 0.379503,-0.7590053 0.882344,-1.4136474 1.508523,-1.9639263 0.645154,-0.5502789 1.385184,-0.9867069 2.22009,-1.3092842 0.853881,-0.3225773 1.7552,-0.4838659 2.703957,-0.4838659 1.48006,0 2.760881,0.2656519 3.842464,0.7969556 1.100558,0.5123286 1.925976,1.1100453 2.476255,1.7931501 0.132826,0.1707762 0.123339,0.3225773 -0.02846,0.4554032 L 50.84552,7.9235443 c -0.0759,0.075901 -0.170776,0.1138508 -0.284627,0.1138508 -0.09488,0 -0.180263,-0.047438 -0.256164,-0.1423135 C 50.133953,7.7053303 49.915739,7.5155789 49.650087,7.3258276 49.40341,7.1360763 49.109296,6.9653001 48.767743,6.813499 48.445166,6.6427228 48.094126,6.5098969 47.714623,6.4150212 47.33512,6.3201455 46.94613,6.2727077 46.547652,6.2727077 c -0.474378,0 -0.910806,0.075901 -1.309284,0.2277016 -0.379503,0.1328259 -0.70208,0.3130897 -0.967732,0.5407913 -0.265651,0.2277016 -0.474378,0.4933535 -0.626179,0.7969556 -0.151801,0.3036021 -0.227702,0.6261794 -0.227702,0.9677318 0,0.5502789 0.180264,1.0246572 0.540792,1.423135 0.360527,0.398478 0.901319,0.673617 1.622374,0.825418 l 2.789344,0.540792 c 0.910807,0.170776 1.707762,0.445915 2.390867,0.825418 0.70208,0.360527 1.280822,0.796955 1.736225,1.309284 0.474378,0.512329 0.834905,1.09107 1.081582,1.736225 0.246677,0.626179 0.370015,1.290309 0.370015,1.992389 0,0.759005 -0.161288,1.508523 -0.483865,2.248553 -0.303603,0.74003 -0.768494,1.40416 -1.394673,1.992389 -0.607204,0.588229 -1.356722,1.062608 -2.248553,1.423135 -0.891831,0.341553 -1.916489,0.512329 -3.073972,0.512329 -0.815931,0 -1.584423,-0.08539 -2.305478,-0.256165 -0.70208,-0.170776 -1.347235,-0.38899 -1.935464,-0.654642 -0.569254,-0.284627 -1.072095,-0.588229 -1.508523,-0.910806 -0.436428,-0.341553 -0.796956,-0.673618 -1.081583,-0.996195 -0.132826,-0.132826 -0.132826,-0.284627 0,-0.455403 l 1.79315,-2.305479 c 0.05693,-0.09487 0.132827,-0.142313 0.227702,-0.142313 0.113851,-0.01897 0.208726,0.0095 0.284627,0.08539 0.265652,0.246677 0.559767,0.502841 0.882344,0.768493 0.322577,0.246677 0.673617,0.474378 1.05312,0.683105 0.379503,0.208726 0.787468,0.379502 1.223896,0.512328 0.436428,0.132826 0.901319,0.199239 1.394672,0.199239 1.043633,0 1.840588,-0.227702 2.390867,-0.683105 0.550279,-0.455403 0.825418,-1.043632 0.825418,-1.764687 0,-0.569254 -0.208726,-1.062607 -0.626179,-1.48006 -0.398478,-0.436428 -0.996195,-0.730543 -1.79315,-0.882344 L 44.782965,14.783055 C 43.189054,14.460478 41.91772,13.805836 40.968963,12.819129 40.020206,11.832422 39.545828,10.580063 39.545828,9.0620523 Z"
           id="path872" />
        <path
           style="color:#000000;font-style:normal;font-variant:normal;font-weight:normal;font-stretch:normal;font-size:medium;line-height:1.25;font-family:VALORANT;-inkscape-font-specification:VALORANT;font-variant-ligatures:normal;font-variant-position:normal;font-variant-caps:normal;font-variant-numeric:normal;font-variant-alternates:normal;font-variant-east-asian:normal;font-feature-settings:normal;font-variation-settings:normal;text-indent:0;text-align:start;text-decoration:none;text-decoration-line:none;text-decoration-style:solid;text-decoration-color:#000000;letter-spacing:0px;word-spacing:0px;text-transform:none;writing-mode:lr-tb;direction:ltr;text-orientation:mixed;dominant-baseline:auto;baseline-shift:baseline;text-anchor:start;white-space:normal;shape-padding:0;shape-margin:0;inline-size:0;clip-rule:nonzero;display:inline;overflow:visible;visibility:visible;isolation:auto;mix-blend-mode:normal;color-interpolation:sRGB;color-interpolation-filters:linearRGB;solid-color:#000000;solid-opacity:1;vector-effect:none;fill:#e6e6e6;fill-opacity:1;fill-rule:nonzero;stroke-width:0.711566;stroke-linecap:butt;stroke-linejoin:miter;stroke-miterlimit:4;stroke-dasharray:none;stroke-dashoffset:0;stroke-opacity:1;color-rendering:auto;image-rendering:auto;shape-rendering:auto;text-rendering:auto;enable-background:accumulate;stop-color:#000000;stop-opacity:1;stroke:none;opacity:1"
           d="m 57.216719,3.2271988 h 15.028306 c 0.227701,0 0.341552,0.1138508 0.341552,0.3415524 v 4.1840169 c 0,0.2656519 -0.0759,0.502841 -0.227701,0.7115675 l -3.643226,4.7248084 3.643226,4.724808 c 0.151801,0.208727 0.227701,0.445916 0.227701,0.711567 v 4.184017 c 0,0.227702 -0.113851,0.341553 -0.341552,0.341553 H 57.216719 c -0.09487,0 -0.180263,-0.02846 -0.256164,-0.08539 -0.05693,-0.0759 -0.08539,-0.161289 -0.08539,-0.256165 V 3.5687512 c 0,-0.094876 0.02846,-0.1707762 0.08539,-0.2277016 0.0759,-0.0759 0.161289,-0.1138508 0.256164,-0.1138508 z M 68.857964,19.536326 64.161618,13.416845 c -0.09488,-0.151801 -0.09488,-0.294114 0,-0.42694 L 68.857964,6.8419617 H 60.518393 V 19.536326 Z"
           id="path874" />
        <path
           style="color:#000000;font-style:normal;font-variant:normal;font-weight:normal;font-stretch:normal;font-size:medium;line-height:1.25;font-family:VALORANT;-inkscape-font-specification:VALORANT;font-variant-ligatures:normal;font-variant-position:normal;font-variant-caps:normal;font-variant-numeric:normal;font-variant-alternates:normal;font-variant-east-asian:normal;font-feature-settings:normal;font-variation-settings:normal;text-indent:0;text-align:start;text-decoration:none;text-decoration-line:none;text-decoration-style:solid;text-decoration-color:#000000;letter-spacing:0px;word-spacing:0px;text-transform:none;writing-mode:lr-tb;direction:ltr;text-orientation:mixed;dominant-baseline:auto;baseline-shift:baseline;text-anchor:start;white-space:normal;shape-padding:0;shape-margin:0;inline-size:0;clip-rule:nonzero;display:inline;overflow:visible;visibility:visible;isolation:auto;mix-blend-mode:normal;color-interpolation:sRGB;color-interpolation-filters:linearRGB;solid-color:#000000;solid-opacity:1;vector-effect:none;fill:#e6e6e6;fill-opacity:1;fill-rule:nonzero;stroke-width:0.711566;stroke-linecap:butt;stroke-linejoin:miter;stroke-miterlimit:4;stroke-dasharray:none;stroke-dashoffset:0;stroke-opacity:1;color-rendering:auto;image-rendering:auto;shape-rendering:auto;text-rendering:auto;enable-background:accumulate;stop-color:#000000;stop-opacity:1;stroke:none;opacity:1"
           d="m 74.844021,22.695686 7.343376,-9.563468 -7.343376,-9.5634668 c -0.0759,-0.0759 -0.08539,-0.1612886 -0.02846,-0.2561643 0.05693,-0.094876 0.132826,-0.1423135 0.227701,-0.1423135 h 3.614763 c 0.379503,0 0.692592,0.1518011 0.939269,0.4554032 l 4.95251,6.4325704 4.924047,-6.4325704 c 0.246677,-0.3036021 0.559766,-0.4554032 0.939269,-0.4554032 h 3.614763 c 0.113851,0 0.189752,0.047438 0.227702,0.1423135 0.05693,0.094876 0.04744,0.1802638 -0.02846,0.2561643 l -7.343376,9.5634668 7.343376,9.563468 c 0.0759,0.09488 0.08539,0.189751 0.02846,0.284627 -0.03795,0.0759 -0.113854,0.11385 -0.227702,0.11385 h -3.614763 c -0.379503,0 -0.692592,-0.151801 -0.939269,-0.455403 l -4.924047,-6.43257 -4.95251,6.43257 c -0.246677,0.303602 -0.559766,0.455403 -0.939269,0.455403 h -3.614763 c -0.09488,0 -0.170776,-0.03795 -0.227701,-0.11385 -0.05693,-0.09488 -0.04744,-0.189752 0.02846,-0.284627 z"
           id="path876" />
      </g>
    </g>
    <g
       aria-label="73"
       id="text839"
       style="font-size:10.5833px;line-height:1.25;font-family:Abel;-inkscape-font-specification:Abel;letter-spacing:0px;word-spacing:0px;fill:url(#linearGradient927);fill-opacity:1;stroke-width:0.264583"
       inkscape:export-xdpi="96"
       inkscape:export-ydpi="96"
       transform="matrix(2.6893909,0,0,2.6893909,114.19768,219.65366)">
      <path
         d="m -6.1108987,-80.528946 h 4.9000678 q 0.1269995,0 0.1269995,0.137583 v 7.143727 q 0,0.137583 -0.1269995,0.137583 h -1.0900799 q -0.1269996,0 -0.1269996,-0.137583 v -5.937231 h -2.6246583 q -0.2222493,0 -0.3492489,-0.169332 l -0.7831642,-1.015997 q -0.042333,-0.05292 -0.010583,-0.105833 0.03175,-0.05292 0.084666,-0.05292 z"
         style="font-style:normal;font-variant:normal;font-weight:normal;font-stretch:normal;font-family:VALORANT;-inkscape-font-specification:VALORANT;fill:url(#linearGradient929);fill-opacity:1;stroke-width:0.264583"
         id="path841" />
      <path
         d="m 0.44545532,-73.247636 v -1.079496 q 0,-0.05292 0.0317499,-0.08467 0.0423332,-0.04233 0.0952497,-0.04233 H 3.5569454 l -1.7568277,-2.285992 q -0.0635,-0.08467 0,-0.15875 l 1.7568277,-2.275409 H 0.57245492 q -0.0529165,0 -0.0952497,-0.04233 -0.0317499,-0.04233 -0.0317499,-0.09525 v -1.079497 q 0,-0.05292 0.0317499,-0.09525 0.0423332,-0.04233 0.0952497,-0.04233 H 4.8057748 q 0.1269996,0 0.1269996,0.137583 v 1.545162 q 0,0.137583 -0.084666,0.275166 l -1.3546624,1.756827 1.3546624,1.756828 q 0.084666,0.116416 0.084666,0.264583 v 1.545161 q 0,0.137583 -0.1269996,0.137583 H 0.57245492 q -0.0529165,0 -0.0952497,-0.04233 -0.0317499,-0.04233 -0.0317499,-0.09525 z"
         style="font-style:normal;font-variant:normal;font-weight:normal;font-stretch:normal;font-family:VALORANT;-inkscape-font-specification:VALORANT;fill:url(#linearGradient931);fill-opacity:1;stroke-width:0.264583"
         id="path843" />
    </g>
  </g>
</svg>
